<svg xmlns="http://www.w3.org/2000/svg" viewBox="0 0 1200 800"><g data-name="Secondary shapes"><path fill="#fff" d="M286.22,480.11H178.84V336.67H286.22v26.22H205.68v33h77.67v25.2H205.68v32.38h80.54Z"/><path fill="#fff" d="M385,480.73H356.91L297.28,336.67h30.33l43.24,111.68,43.44-111.68h30.33Z"/><path fill="#fff" d="M568.19,480.11H460.81V336.67H568.19v26.22H487.65v33h77.67v25.2H487.65v32.38h80.54Z"/><path fill="#fff" d="M683.35,336.46h27V480.11H693.6v.2l-75.41-96.92v96.72H591.14V336.67h21.93l70.28,88.93Z"/><path fill="#fff" d="M772.29,361.26H726.8V336.67h118v24.59H799.34V480.11H772.29Z"/><path fill="#fff" d="M949.75,371.3c-4.92-8.2-18.44-16-34-16-20.08,0-29.71,8.41-29.71,19.06,0,12.5,14.75,16,32,18,29.92,3.69,57.78,11.48,57.78,45.7,0,32-28.27,45.7-60.24,45.7-29.31,0-51.85-9-62.5-35.25l22.54-11.68c6.35,15.78,22.95,22.75,40.37,22.75,17,0,33-5.95,33-21.52,0-13.52-14.14-19.06-33.2-21.1-29.3-3.49-56.35-11.27-56.35-43.45,0-29.51,29.1-41.6,55.53-41.8,22.34,0,45.5,6.35,56.36,28.48Z"/><line x1="683.35" x2="683.35" y1="327.38" y2="386.54" fill="none" stroke="#111416" stroke-linecap="round" stroke-linejoin="round" stroke-width="3"/><line x1="683.35" x2="683.35" y1="398.82" y2="410.05" fill="none" stroke="#111416" stroke-linecap="round" stroke-linejoin="round" stroke-width="3"/><path fill="none" stroke="#111416" stroke-linecap="round" stroke-linejoin="round" stroke-width="3" d="M675.1,336.46h27.18"/><line x1="300.94" x2="334.2" y1="336.67" y2="336.67" fill="none" stroke="#111416" stroke-linecap="round" stroke-linejoin="round" stroke-width="3"/><line x1="345.26" x2="323.13" y1="382.25" y2="325.1" fill="none" stroke="#111416" stroke-linecap="round" stroke-linejoin="round" stroke-width="3"/><line x1="349.99" x2="353.93" y1="394.47" y2="404.64" fill="none" stroke="#111416" stroke-linecap="round" stroke-linejoin="round" stroke-width="3"/><line x1="379.53" x2="344.45" y1="480.73" y2="480.73" fill="none" stroke="#111416" stroke-linecap="round" stroke-linejoin="round" stroke-width="3"/><line x1="360.97" x2="336.89" y1="490.52" y2="432.35" fill="none" stroke="#111416" stroke-linecap="round" stroke-linejoin="round" stroke-width="3"/><path fill="none" stroke="#111416" stroke-linecap="round" stroke-linejoin="round" stroke-width="3" d="M906.29,332.24c2.88-.31,5.77-.47,8.62-.49,22.34,0,45.5,6.35,56.36,28.48m-85.55-23a70.17,70.17,0,0,1,12-3.68m31.5,85.72A94.91,94.91,0,0,0,915.73,417c-13.69-1.63-26.89-4.2-37.07-9.76m70.27,30.86c0-7.22-4-12.16-10.7-15.52"/><line x1="954.87" x2="978.13" y1="368.67" y2="356.71" fill="none" stroke="#111416" stroke-linecap="round" stroke-linejoin="round" stroke-width="3"/><line x1="971.27" x2="974.05" y1="360.23" y2="365.97" fill="none" stroke="#111416" stroke-linecap="round" stroke-linejoin="round" stroke-width="3"/><circle cx="1029.08" cy="470.07" r="30.75" fill="#8af2ec"/><path fill="#fff" d="M1029.63,475.52h-1.22a45.89,45.89,0,0,0-1.28-7.68l-1.45-6.08a38.55,38.55,0,0,1-1.3-7.82,4.73,4.73,0,0,1,1.28-3.46,4.91,4.91,0,0,1,6.68,0,4.55,4.55,0,0,1,1.33,3.35,40.9,40.9,0,0,1-1.41,7.91l-1.48,6.08A49,49,0,0,0,1029.63,475.52Zm-.57,4a4.35,4.35,0,0,1,3.19,1.33,4.56,4.56,0,0,1,0,6.44,4.49,4.49,0,0,1-6.38,0,4.55,4.55,0,0,1,0-6.42A4.28,4.28,0,0,1,1029.06,479.5Z"/><g style="mix-blend-mode:multiply"><line x1="1029.08" x2="1029.08" y1="428.68" y2="425.13" fill="none" stroke="#8af2ec" stroke-linecap="round" stroke-linejoin="round" stroke-width="3"/><line x1="1058.34" x2="1060.85" y1="440.8" y2="438.29" fill="none" stroke="#8af2ec" stroke-linecap="round" stroke-linejoin="round" stroke-width="3"/><line x1="1070.47" x2="1074.02" y1="470.07" y2="470.07" fill="none" stroke="#8af2ec" stroke-linecap="round" stroke-linejoin="round" stroke-width="3"/><line x1="1058.34" x2="1060.85" y1="499.34" y2="501.85" fill="none" stroke="#8af2ec" stroke-linecap="round" stroke-linejoin="round" stroke-width="3"/><line x1="1029.08" x2="1029.08" y1="511.46" y2="515.01" fill="none" stroke="#8af2ec" stroke-linecap="round" stroke-linejoin="round" stroke-width="3"/><line x1="999.81" x2="997.3" y1="499.34" y2="501.85" fill="none" stroke="#8af2ec" stroke-linecap="round" stroke-linejoin="round" stroke-width="3"/><line x1="987.68" x2="984.14" y1="470.07" y2="470.07" fill="none" stroke="#8af2ec" stroke-linecap="round" stroke-linejoin="round" stroke-width="3"/><line x1="999.81" x2="997.3" y1="440.8" y2="438.29" fill="none" stroke="#8af2ec" stroke-linecap="round" stroke-linejoin="round" stroke-width="3"/></g><rect width="106.78" height="55.74" x="178.78" y="280.93" fill="none" stroke="#111416" stroke-linecap="round" stroke-linejoin="round" stroke-width="3"/><rect width="113.61" height="26.06" x="175.36" y="254.87" fill="none" stroke="#111416" stroke-linecap="round" stroke-linejoin="round" stroke-width="3"/><path fill="none" stroke="#111416" stroke-linecap="round" stroke-linejoin="round" stroke-width="3" d="M246,241.05a8.1,8.1,0,1,0-13.82-5.73v19.55Z"/><path fill="none" stroke="#111416" stroke-linecap="round" stroke-linejoin="round" stroke-width="3" d="M251.71,254.87A8.1,8.1,0,1,0,246,241.05l-13.82,13.82Z"/><path fill="none" stroke="#111416" stroke-linecap="round" stroke-linejoin="round" stroke-width="3" d="M218.35,241.05a8.1,8.1,0,1,1,13.82-5.73v19.55Z"/><path fill="none" stroke="#111416" stroke-linecap="round" stroke-linejoin="round" stroke-width="3" d="M212.62,254.87a8.1,8.1,0,1,1,5.73-13.82l13.82,13.82Z"/><line x1="232.17" x2="232.17" y1="254.87" y2="336.67" fill="none" stroke="#111416" stroke-linecap="round" stroke-linejoin="round" stroke-width="3"/><polygon fill="#fff" points="375.31 179.8 327.61 212.3 327.61 262.82 423 262.82 423 212.3 375.31 179.8"/><polyline fill="none" stroke="#111416" stroke-linecap="round" stroke-linejoin="round" stroke-width="3" points="327.61 212.3 375.31 244.79 423 212.3"/><line x1="385.93" x2="423.01" y1="237.56" y2="262.82" fill="none" stroke="#111416" stroke-linecap="round" stroke-linejoin="round" stroke-width="3"/><line x1="327.61" x2="364.69" y1="262.82" y2="237.56" fill="none" stroke="#111416" stroke-linecap="round" stroke-linejoin="round" stroke-width="3"/><path fill="none" stroke="#111416" stroke-linecap="round" stroke-linejoin="round" stroke-width="3" d="M464.38,152.16a14.66,14.66,0,1,0-14.65-14.66A14.66,14.66,0,0,0,464.38,152.16ZM490.67,168c0-6.61-3.76-15.83-13.91-15.83H452c-10.15,0-13.9,9.22-13.9,15.83"/><path fill="none" stroke="#111416" stroke-linecap="round" stroke-linejoin="round" stroke-width="3" d="M449.73,137.5c8,0,16.6-1.82,24.37-11"/><path fill="none" stroke="#8af2ec" stroke-linecap="round" stroke-linejoin="round" stroke-width="3" d="M464.38,104.79A45.69,45.69,0,0,0,424.9,173.5l-4.71,21.77,22.2-4.71a45.71,45.71,0,0,0,67.69-40.07"/><path fill="#8af2ec" d="M473.84,103.88a1.88,1.88,0,1,0,1.79,2A1.87,1.87,0,0,0,473.84,103.88Z"/><path fill="#8af2ec" d="M482.24,106.4a1.88,1.88,0,1,0,1.4,2.27A1.88,1.88,0,0,0,482.24,106.4Z"/><path fill="#8af2ec" d="M490,110.43a1.88,1.88,0,1,0,1,2.49A1.88,1.88,0,0,0,490,110.43Z"/><path fill="#8af2ec" d="M497,115.83a1.88,1.88,0,1,0,.49,2.61A1.88,1.88,0,0,0,497,115.83Z"/><path fill="#8af2ec" d="M502.78,122.4a1.88,1.88,0,1,0,0,2.66A1.87,1.87,0,0,0,502.78,122.4Z"/><polygon fill="none" stroke="#111416" stroke-linecap="round" stroke-linejoin="round" stroke-width="3" points="432.81 270.06 447.25 299.73 462.48 284.49 432.81 270.06"/><line x1="454.86" x2="467.9" y1="292.11" y2="305.14" fill="none" stroke="#111416" stroke-linecap="round" stroke-linejoin="round" stroke-width="3"/><line x1="431.86" x2="431.86" y1="257.01" y2="249.13" fill="none" stroke="#111416" stroke-linecap="round" stroke-linejoin="round" stroke-width="3"/><line x1="441.76" x2="447.33" y1="261.11" y2="255.54" fill="none" stroke="#111416" stroke-linecap="round" stroke-linejoin="round" stroke-width="3"/><line x1="417.87" x2="409.99" y1="271.01" y2="271.01" fill="none" stroke="#111416" stroke-linecap="round" stroke-linejoin="round" stroke-width="3"/><line x1="421.97" x2="416.39" y1="280.9" y2="286.48" fill="none" stroke="#111416" stroke-linecap="round" stroke-linejoin="round" stroke-width="3"/><line x1="431.86" x2="431.86" y1="285" y2="292.88" fill="none" stroke="#111416" stroke-linecap="round" stroke-linejoin="round" stroke-width="3"/><polygon fill="none" stroke="#111416" stroke-linecap="round" stroke-linejoin="round" stroke-width="3" points="505.91 680.89 518.79 707.37 532.39 693.78 505.91 680.89"/><line x1="525.59" x2="537.22" y1="700.57" y2="712.21" fill="none" stroke="#111416" stroke-linecap="round" stroke-linejoin="round" stroke-width="3"/><line x1="505.06" x2="505.06" y1="669.25" y2="662.21" fill="none" stroke="#111416" stroke-linecap="round" stroke-linejoin="round" stroke-width="3"/><line x1="497.07" x2="492.1" y1="673.26" y2="668.28" fill="none" stroke="#111416" stroke-linecap="round" stroke-linejoin="round" stroke-width="3"/><line x1="513.89" x2="518.87" y1="672.9" y2="667.93" fill="none" stroke="#111416" stroke-linecap="round" stroke-linejoin="round" stroke-width="3"/><line x1="492.57" x2="485.53" y1="681.74" y2="681.74" fill="none" stroke="#111416" stroke-linecap="round" stroke-linejoin="round" stroke-width="3"/><line x1="496.23" x2="491.25" y1="690.57" y2="695.54" fill="none" stroke="#111416" stroke-linecap="round" stroke-linejoin="round" stroke-width="3"/><line x1="505.06" x2="505.06" y1="694.23" y2="701.26" fill="none" stroke="#111416" stroke-linecap="round" stroke-linejoin="round" stroke-width="3"/><rect width="150.76" height="103.6" x="440.37" y="376.99" fill="none" stroke="#111416" stroke-linecap="round" stroke-linejoin="round" stroke-width="3"/><polyline fill="none" stroke="#111416" stroke-linecap="round" stroke-linejoin="round" stroke-width="3" points="451.93 433.83 451.93 425.77 459.99 425.77"/><polyline fill="none" stroke="#111416" stroke-linecap="round" stroke-linejoin="round" stroke-width="3" points="471.82 433.83 471.82 425.77 479.88 425.77"/><polyline fill="none" stroke="#111416" stroke-linecap="round" stroke-linejoin="round" stroke-width="3" points="491.7 433.83 491.7 425.77 499.77 425.77"/><polyline fill="none" stroke="#111416" stroke-linecap="round" stroke-linejoin="round" stroke-width="3" points="511.59 433.83 511.59 425.77 519.65 425.77"/><polyline fill="none" stroke="#111416" stroke-linecap="round" stroke-linejoin="round" stroke-width="3" points="531.48 433.83 531.48 425.77 539.54 425.77"/><polyline fill="none" stroke="#111416" stroke-linecap="round" stroke-linejoin="round" stroke-width="3" points="551.37 433.83 551.37 425.77 559.43 425.77"/><rect width="8.06" height="8.06" x="571.25" y="425.77" fill="none" stroke="#111416" stroke-linecap="round" stroke-linejoin="round" stroke-width="3"/><polyline fill="none" stroke="#111416" stroke-linecap="round" stroke-linejoin="round" stroke-width="3" points="451.93 452.78 451.93 444.72 459.99 444.72"/><polyline fill="none" stroke="#111416" stroke-linecap="round" stroke-linejoin="round" stroke-width="3" points="471.82 452.78 471.82 444.72 479.88 444.72"/><polyline fill="none" stroke="#111416" stroke-linecap="round" stroke-linejoin="round" stroke-width="3" points="491.7 452.78 491.7 444.72 499.77 444.72"/><rect width="8.06" height="8.06" x="511.59" y="444.72" fill="none" stroke="#111416" stroke-linecap="round" stroke-linejoin="round" stroke-width="3"/><polyline fill="none" stroke="#111416" stroke-linecap="round" stroke-linejoin="round" stroke-width="3" points="531.48 452.78 531.48 444.72 539.54 444.72"/><polyline fill="none" stroke="#111416" stroke-linecap="round" stroke-linejoin="round" stroke-width="3" points="551.37 452.78 551.37 444.72 559.43 444.72"/><polyline fill="none" stroke="#111416" stroke-linecap="round" stroke-linejoin="round" stroke-width="3" points="571.25 452.78 571.25 444.72 579.31 444.72"/><polyline fill="none" stroke="#111416" stroke-linecap="round" stroke-linejoin="round" stroke-width="3" points="451.93 471.73 451.93 463.67 459.99 463.67"/><polyline fill="none" stroke="#111416" stroke-linecap="round" stroke-linejoin="round" stroke-width="3" points="471.82 471.73 471.82 463.67 479.88 463.67"/><polyline fill="none" stroke="#fff" stroke-linecap="round" stroke-linejoin="round" stroke-width="3" points="491.7 471.73 491.7 463.67 499.77 463.67"/><polyline fill="none" stroke="#fff" stroke-linecap="round" stroke-linejoin="round" stroke-width="3" points="511.59 471.73 511.59 463.67 519.65 463.67"/><polyline fill="none" stroke="#fff" stroke-linecap="round" stroke-linejoin="round" stroke-width="3" points="531.48 471.73 531.48 463.67 539.54 463.67"/><polyline fill="none" stroke="#111416" stroke-linecap="round" stroke-linejoin="round" stroke-width="3" points="551.37 471.73 551.37 463.67 559.43 463.67"/><polyline fill="none" stroke="#111416" stroke-linecap="round" stroke-linejoin="round" stroke-width="3" points="571.25 471.73 571.25 463.67 579.31 463.67"/><polyline fill="none" stroke="#111416" stroke-linecap="round" stroke-linejoin="round" stroke-width="3" points="451.93 414.89 451.93 406.82 459.99 406.82"/><polyline fill="none" stroke="#111416" stroke-linecap="round" stroke-linejoin="round" stroke-width="3" points="471.82 414.89 471.82 406.82 479.88 406.82"/><rect width="8.06" height="8.06" x="491.7" y="406.82" fill="none" stroke="#fff" stroke-linecap="round" stroke-linejoin="round" stroke-width="3"/><polyline fill="none" stroke="#111416" stroke-linecap="round" stroke-linejoin="round" stroke-width="3" points="511.59 414.89 511.59 406.82 519.65 406.82"/><polyline fill="none" stroke="#111416" stroke-linecap="round" stroke-linejoin="round" stroke-width="3" points="531.48 414.89 531.48 406.82 539.54 406.82"/><polyline fill="none" stroke="#111416" stroke-linecap="round" stroke-linejoin="round" stroke-width="3" points="551.37 414.89 551.37 406.82 559.43 406.82"/><polyline fill="none" stroke="#111416" stroke-linecap="round" stroke-linejoin="round" stroke-width="3" points="571.25 414.89 571.25 406.82 579.31 406.82"/><polyline fill="none" stroke="#111416" stroke-linecap="round" stroke-linejoin="round" stroke-width="3" points="451.93 395.94 451.93 387.88 459.99 387.88"/><polyline fill="none" stroke="#111416" stroke-linecap="round" stroke-linejoin="round" stroke-width="3" points="471.82 395.94 471.82 387.88 479.88 387.88"/><polyline fill="none" stroke="#111416" stroke-linecap="round" stroke-linejoin="round" stroke-width="3" points="491.7 395.94 491.7 387.88 499.77 387.88"/><polyline fill="none" stroke="#111416" stroke-linecap="round" stroke-linejoin="round" stroke-width="3" points="511.59 395.94 511.59 387.88 519.65 387.88"/><polyline fill="none" stroke="#111416" stroke-linecap="round" stroke-linejoin="round" stroke-width="3" points="531.48 395.94 531.48 387.88 539.54 387.88"/><polyline fill="none" stroke="#111416" stroke-linecap="round" stroke-linejoin="round" stroke-width="3" points="551.37 395.94 551.37 387.88 559.43 387.88"/><polyline fill="none" stroke="#111416" stroke-linecap="round" stroke-linejoin="round" stroke-width="3" points="571.25 395.94 571.25 387.88 579.31 387.88"/><polyline fill="none" stroke="#111416" stroke-linecap="round" stroke-linejoin="round" stroke-width="3" points="440.38 376.99 440.38 353.29 591.14 353.29 591.14 376.99"/><line x1="452.94" x2="452.94" y1="342.5" y2="362.89" fill="none" stroke="#111416" stroke-linecap="round" stroke-linejoin="round" stroke-width="3"/><line x1="465.5" x2="465.5" y1="342.5" y2="362.89" fill="none" stroke="#111416" stroke-linecap="round" stroke-linejoin="round" stroke-width="3"/><line x1="478.07" x2="478.07" y1="342.5" y2="362.89" fill="none" stroke="#111416" stroke-linecap="round" stroke-linejoin="round" stroke-width="3"/><line x1="490.63" x2="490.63" y1="342.5" y2="362.89" fill="none" stroke="#111416" stroke-linecap="round" stroke-linejoin="round" stroke-width="3"/><line x1="503.19" x2="503.19" y1="342.5" y2="362.89" fill="none" stroke="#111416" stroke-linecap="round" stroke-linejoin="round" stroke-width="3"/><line x1="515.76" x2="515.76" y1="342.5" y2="362.89" fill="none" stroke="#111416" stroke-linecap="round" stroke-linejoin="round" stroke-width="3"/><line x1="528.32" x2="528.32" y1="342.5" y2="362.89" fill="none" stroke="#111416" stroke-linecap="round" stroke-linejoin="round" stroke-width="3"/><line x1="540.88" x2="540.88" y1="342.5" y2="362.89" fill="none" stroke="#111416" stroke-linecap="round" stroke-linejoin="round" stroke-width="3"/><line x1="553.45" x2="553.45" y1="342.5" y2="362.89" fill="none" stroke="#111416" stroke-linecap="round" stroke-linejoin="round" stroke-width="3"/><line x1="566.01" x2="566.01" y1="342.5" y2="362.89" fill="none" stroke="#111416" stroke-linecap="round" stroke-linejoin="round" stroke-width="3"/><line x1="578.58" x2="578.58" y1="342.5" y2="362.89" fill="none" stroke="#111416" stroke-linecap="round" stroke-linejoin="round" stroke-width="3"/><path fill="none" stroke="#111416" stroke-width="3" d="M513.73,259.88A7.23,7.23,0,1,1,521,267.1,7.23,7.23,0,0,1,513.73,259.88Z"/><path fill="none" stroke="#111416" stroke-linecap="round" stroke-width="3" d="M510.43,276.49v56.56a3.61,3.61,0,0,0,3.61,3.62h13.83a3.63,3.63,0,0,0,3.62-3.62V276.49"/><path fill="none" stroke="#111416" stroke-linecap="round" stroke-width="3" d="M521,267.1H513.3c-6.77,0-10.18,4.41-10.18,10.66v23.07a3.66,3.66,0,0,0,7.31,0"/><path fill="none" stroke="#111416" stroke-linecap="round" stroke-width="3" d="M521,267.1h7.65c6.77,0,10.18,4.41,10.18,10.66v23.07a3.65,3.65,0,0,1-7.3,0"/><line x1="520.96" x2="520.96" y1="308.78" y2="336.67" fill="none" stroke="#111416" stroke-linecap="round" stroke-width="3"/><path fill="none" stroke="#111416" stroke-linecap="round" stroke-linejoin="round" stroke-width="3" d="M593.72,317.32l19.35,19.35,19.34-19.35a27.36,27.36,0,1,0-38.69,0Z"/><path fill="none" stroke="#111416" stroke-linecap="round" stroke-linejoin="round" stroke-width="3" d="M600.16,298a12.91,12.91,0,1,1,12.91,12.91A12.91,12.91,0,0,1,600.16,298Z"/><path fill="#fff" d="M726.73,194.11a13.93,13.93,0,0,1,18,21.18l-23.79,23.8-23.79-23.8a13.93,13.93,0,0,1,18-21.18l5.82,4.6Z"/><line x1="720.91" x2="720.91" y1="168.92" y2="166.36" fill="none" stroke="#111416" stroke-linecap="round" stroke-linejoin="round" stroke-width="3"/><line x1="720.91" x2="720.91" y1="251.31" y2="253.87" fill="none" stroke="#111416" stroke-linecap="round" stroke-linejoin="round" stroke-width="3"/><line x1="705.15" x2="704.17" y1="172.06" y2="169.69" fill="none" stroke="#111416" stroke-linecap="round" stroke-linejoin="round" stroke-width="3"/><line x1="736.67" x2="737.66" y1="248.17" y2="250.54" fill="none" stroke="#111416" stroke-linecap="round" stroke-linejoin="round" stroke-width="3"/><line x1="691.78" x2="689.97" y1="180.99" y2="179.17" fill="none" stroke="#111416" stroke-linecap="round" stroke-linejoin="round" stroke-width="3"/><line x1="750.04" x2="751.85" y1="239.24" y2="241.05" fill="none" stroke="#111416" stroke-linecap="round" stroke-linejoin="round" stroke-width="3"/><line x1="682.85" x2="680.49" y1="194.35" y2="193.37" fill="none" stroke="#111416" stroke-linecap="round" stroke-linejoin="round" stroke-width="3"/><line x1="758.97" x2="761.34" y1="225.88" y2="226.86" fill="none" stroke="#111416" stroke-linecap="round" stroke-linejoin="round" stroke-width="3"/><line x1="679.72" x2="677.15" y1="210.11" y2="210.11" fill="none" stroke="#111416" stroke-linecap="round" stroke-linejoin="round" stroke-width="3"/><line x1="762.1" x2="764.67" y1="210.11" y2="210.11" fill="none" stroke="#111416" stroke-linecap="round" stroke-linejoin="round" stroke-width="3"/><line x1="682.85" x2="680.49" y1="225.88" y2="226.86" fill="none" stroke="#111416" stroke-linecap="round" stroke-linejoin="round" stroke-width="3"/><line x1="758.97" x2="761.34" y1="194.35" y2="193.37" fill="none" stroke="#111416" stroke-linecap="round" stroke-linejoin="round" stroke-width="3"/><line x1="691.78" x2="689.97" y1="239.24" y2="241.05" fill="none" stroke="#111416" stroke-linecap="round" stroke-linejoin="round" stroke-width="3"/><line x1="750.04" x2="751.85" y1="180.99" y2="179.17" fill="none" stroke="#111416" stroke-linecap="round" stroke-linejoin="round" stroke-width="3"/><line x1="705.15" x2="704.17" y1="248.17" y2="250.54" fill="none" stroke="#111416" stroke-linecap="round" stroke-linejoin="round" stroke-width="3"/><line x1="736.67" x2="737.66" y1="172.06" y2="169.69" fill="none" stroke="#111416" stroke-linecap="round" stroke-linejoin="round" stroke-width="3"/><path fill="#8af2ec" d="M168,551.72a18.94,18.94,0,0,0-10.47,3.13l-33.39-33.38a35.84,35.84,0,1,0-5.47,5.47l33.39,33.38a19.07,19.07,0,1,0,15.94-8.6Z"/><path fill="none" stroke="#fff" stroke-linecap="round" stroke-linejoin="round" stroke-width="3" d="M78.4,486.23a6.85,6.85,0,1,1,6.85,6.85A6.84,6.84,0,0,1,78.4,486.23Z"/><path fill="none" stroke="#fff" stroke-linecap="round" stroke-linejoin="round" stroke-width="3" d="M102.15,510a6.85,6.85,0,1,1,6.85,6.85A6.85,6.85,0,0,1,102.15,510Z"/><line x1="81.49" x2="111.6" y1="513.77" y2="483.66" fill="none" stroke="#fff" stroke-linecap="round" stroke-linejoin="round" stroke-width="3"/><path fill="none" stroke="#111416" stroke-linecap="round" stroke-linejoin="round" stroke-width="3" d="M292.92,599.84h8.26c11.18,0,15,13.65,15,16.55"/><path fill="none" stroke="#111416" stroke-linecap="round" stroke-linejoin="round" stroke-width="3" d="M259.36,650.32a6.9,6.9,0,0,1,0-13.79h5.5"/><path fill="none" stroke="#111416" stroke-linecap="round" stroke-linejoin="round" stroke-width="3" d="M264.86,650.32h-5.5a6.89,6.89,0,0,0,0,13.78h46.33a5.14,5.14,0,0,0,5.34-5.26h10.76"/><path fill="none" stroke="#111416" stroke-linecap="round" stroke-linejoin="round" stroke-width="3" d="M292.92,609H259.36a6.89,6.89,0,0,0,0,13.78h0a6.9,6.9,0,0,0,0,13.79"/><polyline fill="none" stroke="#111416" stroke-linecap="round" stroke-linejoin="round" stroke-width="3" points="338 616.39 321.79 616.39 321.79 658.84 338 658.84"/><path fill="none" stroke="#111416" stroke-linecap="round" stroke-linejoin="round" stroke-width="3" d="M316.18,616.39h5.61"/><circle cx="329.54" cy="651.09" r="1.77" fill="#111416"/><rect width="37.37" height="39.83" x="263.21" y="550.87" fill="none" stroke="#111416" stroke-linecap="round" stroke-linejoin="round" stroke-width="3"/><rect width="22.04" height="18.25" x="270.87" y="590.71" fill="none" stroke="#111416" stroke-linecap="round" stroke-linejoin="round" stroke-width="3"/><rect width="11.98" height="25.06" x="300.58" y="558.26" fill="none" stroke="#111416" stroke-linecap="round" stroke-linejoin="round" stroke-width="3"/><polyline fill="none" stroke="#111416" stroke-linecap="round" stroke-linejoin="round" stroke-width="3" points="263.21 554.17 178.84 513.94 178.84 627.64 263.21 587.41"/><line x1="194.24" x2="194.24" y1="620.3" y2="540.21" fill="none" stroke="#111416" stroke-linecap="round" stroke-linejoin="round" stroke-width="3"/><path fill="none" stroke="#111416" stroke-linecap="round" stroke-linejoin="round" stroke-width="3" d="M178.84,557a13.83,13.83,0,0,0,0,27.66"/><line x1="146.48" x2="156.26" y1="570.79" y2="570.79" fill="none" stroke="#111416" stroke-linecap="round" stroke-linejoin="round" stroke-width="3"/><line x1="155.57" x2="162.93" y1="547.32" y2="554.68" fill="none" stroke="#111416" stroke-linecap="round" stroke-linejoin="round" stroke-width="3"/><line x1="155.57" x2="162.93" y1="594.26" y2="586.9" fill="none" stroke="#111416" stroke-linecap="round" stroke-linejoin="round" stroke-width="3"/><polygon fill="#fff" points="693.46 523.38 710.4 506.43 710.4 523.38 738.5 523.38 738.5 581.33 625.62 581.33 625.62 523.38 693.46 523.38"/><line x1="666.76" x2="616.3" y1="537.18" y2="537.18" fill="#fff" stroke="#111416" stroke-linecap="round" stroke-linejoin="round" stroke-width="3"/><line x1="705" x2="676.61" y1="537.18" y2="537.18" fill="#fff" stroke="#111416" stroke-linecap="round" stroke-linejoin="round" stroke-width="3"/><line x1="705" x2="616.3" y1="552.16" y2="552.16" fill="#fff" stroke="#111416" stroke-linecap="round" stroke-linejoin="round" stroke-width="3"/><line x1="705" x2="616.3" y1="567.14" y2="567.14" fill="#fff" stroke="#111416" stroke-linecap="round" stroke-linejoin="round" stroke-width="3"/><circle cx="431.11" cy="551.17" r="54.18" fill="#8af2ec" transform="rotate(-1.78 431.518 551.745)"/><path fill="none" stroke="#111416" stroke-width="3" d="M435.6,558.47a4.78,4.78,0,1,1,4.77,4.77A4.78,4.78,0,0,1,435.6,558.47Z"/><line x1="440.37" x2="440.37" y1="553.69" y2="515.11" fill="none" stroke="#111416" stroke-linecap="round" stroke-width="3"/><line x1="444.5" x2="472.5" y1="560.85" y2="577.02" fill="none" stroke="#111416" stroke-linecap="round" stroke-width="3"/><path fill="none" stroke="#111416" stroke-linecap="round" stroke-linejoin="round" stroke-width="3" d="M479,513.67a59.13,59.13,0,1,0-38.6,103.93"/><circle cx="440.37" cy="505.84" r="1.77" fill="#111416"/><circle cx="440.37" cy="611.09" r="1.77" fill="#111416"/><path fill="#111416" d="M415.6,512a1.77,1.77,0,1,1-2.42-.65A1.77,1.77,0,0,1,415.6,512Z"/><path fill="#111416" d="M395.69,530.62a1.77,1.77,0,1,1-2.43.65A1.78,1.78,0,0,1,395.69,530.62Z"/><path fill="#111416" d="M387.75,556.7a1.77,1.77,0,1,1-1.77,1.77A1.76,1.76,0,0,1,387.75,556.7Z"/><path fill="#111416" d="M393.91,583.25a1.77,1.77,0,1,1-.65,2.42A1.77,1.77,0,0,1,393.91,583.25Z"/><path fill="#111416" d="M412.53,603.16a1.77,1.77,0,1,1,.64,2.42A1.77,1.77,0,0,1,412.53,603.16Z"/><path fill="#111416" d="M468.22,513.78a1.77,1.77,0,1,1-.65-2.42A1.77,1.77,0,0,1,468.22,513.78Z"/><path fill="none" stroke="#111416" stroke-linecap="round" stroke-linejoin="round" stroke-width="3" d="M890.5,190.9a9.48,9.48,0,1,1,9.48,9.48A9.47,9.47,0,0,1,890.5,190.9Z"/><line x1="909.46" x2="909.46" y1="190.9" y2="148.89" fill="none" stroke="#111416" stroke-linecap="round" stroke-linejoin="round" stroke-width="3"/><rect width="21.85" height="14.68" x="909.46" y="148.89" fill="none" stroke="#111416" stroke-linecap="round" stroke-linejoin="round" stroke-width="3"/><circle cx="899.98" cy="190.9" r="1.77" fill="#111416"/><circle cx="813.23" cy="283.9" r="8.37" fill="none" stroke="#111416" stroke-linecap="round" stroke-linejoin="round" stroke-width="3"/><line x1="821.6" x2="821.6" y1="283.9" y2="229.71" fill="none" stroke="#111416" stroke-linecap="round" stroke-linejoin="round" stroke-width="3"/><rect width="49.78" height="18.3" x="821.6" y="229.71" fill="none" stroke="#111416" stroke-linecap="round" stroke-linejoin="round" stroke-width="3"/><circle cx="813.23" cy="283.9" r="1.77" fill="#111416"/><path fill="none" stroke="#111416" stroke-linecap="round" stroke-linejoin="round" stroke-width="3" d="M854.64,275a8.37,8.37,0,1,1,8.37,8.37A8.37,8.37,0,0,1,854.64,275Z"/><circle cx="863.01" cy="274.98" r="1.77" fill="#111416"/><line x1="871.38" x2="871.38" y1="274.98" y2="248.01" fill="none" stroke="#111416" stroke-linecap="round" stroke-linejoin="round" stroke-width="3"/><polygon fill="none" stroke="#111416" stroke-linecap="round" stroke-linejoin="round" stroke-width="3" points="789.75 634.89 789.75 620.55 683.17 620.55 683.17 682.64 789.75 682.64 789.75 652.73 807.59 634.89 789.75 634.89"/><circle cx="696" cy="633.38" r="1.77" fill="#111416"/><circle cx="708.82" cy="633.38" r="1.77" fill="#111416"/><circle cx="721.64" cy="633.38" r="1.77" fill="#111416"/><line x1="695.03" x2="764.34" y1="643.22" y2="643.22" fill="none" stroke="#111416" stroke-linecap="round" stroke-linejoin="round" stroke-width="3"/><line x1="695.03" x2="764.34" y1="655.05" y2="655.05" fill="none" stroke="#111416" stroke-linecap="round" stroke-linejoin="round" stroke-width="3"/><line x1="695.03" x2="764.34" y1="666.87" y2="666.87" fill="none" stroke="#111416" stroke-linecap="round" stroke-linejoin="round" stroke-width="3"/><polygon fill="#8af2ec" points="673.83 292.62 684.41 314.37 695.57 303.2 673.83 292.62"/><polygon fill="none" stroke="#111416" stroke-linecap="round" stroke-linejoin="round" stroke-width="3" points="675.65 285.61 686.22 307.36 697.39 296.19 675.65 285.61"/><rect width="104.87" height="55.54" x="561.94" y="599.31" fill="#8af2ec"/><polyline fill="none" stroke="#111416" stroke-linecap="round" stroke-linejoin="round" stroke-width="3" points="561.94 599.31 614.37 635.03 666.8 599.31"/><line x1="626.05" x2="666.8" y1="627.08" y2="654.85" fill="none" stroke="#111416" stroke-linecap="round" stroke-linejoin="round" stroke-width="3"/><line x1="561.94" x2="602.7" y1="654.85" y2="627.08" fill="none" stroke="#111416" stroke-linecap="round" stroke-linejoin="round" stroke-width="3"/><rect width="102.44" height="102.44" x="915.53" y="483.8" fill="none" stroke="#111416" stroke-linecap="round" stroke-linejoin="round" stroke-width="3"/><line x1="915.53" x2="1017.96" y1="508.8" y2="508.8" fill="none" stroke="#111416" stroke-linecap="round" stroke-linejoin="round" stroke-width="3"/><line x1="931.12" x2="931.12" y1="473.71" y2="491.06" fill="none" stroke="#111416" stroke-linecap="round" stroke-linejoin="round" stroke-width="3"/><line x1="1002.37" x2="1002.37" y1="473.71" y2="491.06" fill="none" stroke="#111416" stroke-linecap="round" stroke-linejoin="round" stroke-width="3"/><rect width="9.46" height="9.46" x="1000.51" y="516.79" fill="none" stroke="#111416" stroke-linecap="round" stroke-linejoin="round" stroke-width="3"/><rect width="9.46" height="9.46" x="1000.51" y="536.39" fill="none" stroke="#111416" stroke-linecap="round" stroke-linejoin="round" stroke-width="3"/><polyline fill="none" stroke="#fff" stroke-linecap="round" stroke-linejoin="round" stroke-width="3" points="1000.51 555.99 1000.51 565.45 1009.97 565.45"/><line x1="957.43" x2="975.56" y1="569.51" y2="569.51" fill="none" stroke="#111416" stroke-linecap="round" stroke-linejoin="round" stroke-width="3"/><polyline fill="none" stroke="#111416" stroke-linecap="round" stroke-linejoin="round" stroke-width="3" points="966.5 569.5 966.5 522.99 955.46 534.03"/><line x1="51.17" x2="146.17" y1="354.67" y2="354.67" fill="none" stroke="#111416" stroke-linecap="round" stroke-linejoin="round" stroke-width="3"/><line x1="51.17" x2="146.17" y1="369.05" y2="369.05" fill="none" stroke="#111416" stroke-linecap="round" stroke-linejoin="round" stroke-width="3"/><line x1="51.17" x2="146.17" y1="383.44" y2="383.44" fill="none" stroke="#111416" stroke-linecap="round" stroke-linejoin="round" stroke-width="3"/><line x1="64.96" x2="146.17" y1="340.87" y2="340.87" fill="none" stroke="#111416" stroke-linecap="round" stroke-linejoin="round" stroke-width="3"/><rect width="19.32" height="19.32" x="10.96" y="337.72" fill="#fff"/><line x1="10.96" x2="30.27" y1="357.03" y2="337.72" fill="none" stroke="#111416" stroke-linecap="round" stroke-linejoin="round" stroke-width="3"/><line x1="10.96" x2="30.27" y1="337.72" y2="357.03" fill="none" stroke="#111416" stroke-linecap="round" stroke-linejoin="round" stroke-width="3"/><rect width="150.76" height="103.6" x="986.21" y="282.21" fill="#8af2ec"/><polyline fill="none" stroke="#fff" stroke-linecap="round" stroke-linejoin="round" stroke-width="3" points="997.76 339.05 997.76 330.98 1005.83 330.98"/><polyline fill="none" stroke="#fff" stroke-linecap="round" stroke-linejoin="round" stroke-width="3" points="1017.65 339.05 1017.65 330.98 1025.71 330.98"/><polyline fill="none" stroke="#fff" stroke-linecap="round" stroke-linejoin="round" stroke-width="3" points="1037.54 339.05 1037.54 330.98 1045.6 330.98"/><polyline fill="none" stroke="#fff" stroke-linecap="round" stroke-linejoin="round" stroke-width="3" points="1057.42 339.05 1057.42 330.98 1065.49 330.98"/><polyline fill="none" stroke="#fff" stroke-linecap="round" stroke-linejoin="round" stroke-width="3" points="1077.31 339.05 1077.31 330.98 1085.37 330.98"/><polyline fill="none" stroke="#fff" stroke-linecap="round" stroke-linejoin="round" stroke-width="3" points="1097.2 339.05 1097.2 330.98 1105.26 330.98"/><rect width="8.06" height="8.06" x="1117.08" y="330.98" fill="#fff"/><polyline fill="none" stroke="#fff" stroke-linecap="round" stroke-linejoin="round" stroke-width="3" points="997.76 357.99 997.76 349.93 1005.83 349.93"/><polyline fill="none" stroke="#fff" stroke-linecap="round" stroke-linejoin="round" stroke-width="3" points="1017.65 357.99 1017.65 349.93 1025.71 349.93"/><polyline fill="none" stroke="#fff" stroke-linecap="round" stroke-linejoin="round" stroke-width="3" points="1037.54 357.99 1037.54 349.93 1045.6 349.93"/><rect width="8.06" height="8.06" x="1057.42" y="349.93" fill="#fff"/><polyline fill="none" stroke="#fff" stroke-linecap="round" stroke-linejoin="round" stroke-width="3" points="1077.31 357.99 1077.31 349.93 1085.37 349.93"/><polyline fill="none" stroke="#fff" stroke-linecap="round" stroke-linejoin="round" stroke-width="3" points="1097.2 357.99 1097.2 349.93 1105.26 349.93"/><polyline fill="none" stroke="#fff" stroke-linecap="round" stroke-linejoin="round" stroke-width="3" points="1117.08 357.99 1117.08 349.93 1125.14 349.93"/><polyline fill="none" stroke="#fff" stroke-linecap="round" stroke-linejoin="round" stroke-width="3" points="997.76 376.94 997.76 368.88 1005.83 368.88"/><polyline fill="none" stroke="#fff" stroke-linecap="round" stroke-linejoin="round" stroke-width="3" points="1017.65 376.94 1017.65 368.88 1025.71 368.88"/><polyline fill="none" stroke="#fff" stroke-linecap="round" stroke-linejoin="round" stroke-width="3" points="1037.54 376.94 1037.54 368.88 1045.6 368.88"/><polyline fill="none" stroke="#fff" stroke-linecap="round" stroke-linejoin="round" stroke-width="3" points="1057.42 376.94 1057.42 368.88 1065.49 368.88"/><polyline fill="none" stroke="#fff" stroke-linecap="round" stroke-linejoin="round" stroke-width="3" points="1077.31 376.94 1077.31 368.88 1085.37 368.88"/><polyline fill="none" stroke="#fff" stroke-linecap="round" stroke-linejoin="round" stroke-width="3" points="1097.2 376.94 1097.2 368.88 1105.26 368.88"/><polyline fill="none" stroke="#fff" stroke-linecap="round" stroke-linejoin="round" stroke-width="3" points="1117.08 376.94 1117.08 368.88 1125.14 368.88"/><polyline fill="none" stroke="#fff" stroke-linecap="round" stroke-linejoin="round" stroke-width="3" points="997.76 320.1 997.76 312.04 1005.83 312.04"/><polyline fill="none" stroke="#fff" stroke-linecap="round" stroke-linejoin="round" stroke-width="3" points="1017.65 320.1 1017.65 312.04 1025.71 312.04"/><rect width="8.06" height="8.06" x="1037.54" y="312.04" fill="#fff"/><polyline fill="none" stroke="#fff" stroke-linecap="round" stroke-linejoin="round" stroke-width="3" points="1057.42 320.1 1057.42 312.04 1065.49 312.04"/><polyline fill="none" stroke="#fff" stroke-linecap="round" stroke-linejoin="round" stroke-width="3" points="1077.31 320.1 1077.31 312.04 1085.37 312.04"/><polyline fill="none" stroke="#fff" stroke-linecap="round" stroke-linejoin="round" stroke-width="3" points="1097.2 320.1 1097.2 312.04 1105.26 312.04"/><polyline fill="none" stroke="#fff" stroke-linecap="round" stroke-linejoin="round" stroke-width="3" points="1117.08 320.1 1117.08 312.04 1125.14 312.04"/><polyline fill="none" stroke="#fff" stroke-linecap="round" stroke-linejoin="round" stroke-width="3" points="997.76 301.15 997.76 293.09 1005.83 293.09"/><polyline fill="none" stroke="#fff" stroke-linecap="round" stroke-linejoin="round" stroke-width="3" points="1017.65 301.15 1017.65 293.09 1025.71 293.09"/><polyline fill="none" stroke="#fff" stroke-linecap="round" stroke-linejoin="round" stroke-width="3" points="1037.54 301.15 1037.54 293.09 1045.6 293.09"/><polyline fill="none" stroke="#fff" stroke-linecap="round" stroke-linejoin="round" stroke-width="3" points="1057.42 301.15 1057.42 293.09 1065.49 293.09"/><polyline fill="none" stroke="#fff" stroke-linecap="round" stroke-linejoin="round" stroke-width="3" points="1077.31 301.15 1077.31 293.09 1085.37 293.09"/><polyline fill="none" stroke="#fff" stroke-linecap="round" stroke-linejoin="round" stroke-width="3" points="1097.2 301.15 1097.2 293.09 1105.26 293.09"/><polyline fill="none" stroke="#fff" stroke-linecap="round" stroke-linejoin="round" stroke-width="3" points="1117.08 301.15 1117.08 293.09 1125.14 293.09"/><polyline fill="none" stroke="#111416" stroke-linecap="round" stroke-linejoin="round" stroke-width="3" points="986.21 282.21 986.21 264 1136.97 264 1136.97 282.21"/><line x1="998.77" x2="998.77" y1="253.21" y2="273.61" fill="none" stroke="#111416" stroke-linecap="round" stroke-linejoin="round" stroke-width="3"/><line x1="1124.41" x2="1124.41" y1="253.21" y2="273.61" fill="none" stroke="#111416" stroke-linecap="round" stroke-linejoin="round" stroke-width="3"/><path fill="none" stroke="#111416" stroke-linecap="round" stroke-linejoin="round" stroke-width="3" d="M803.63,361.26V329H785.76v32.22a22.38,22.38,0,0,0-13.47,20.53v98.32h44.8V381.79A22.39,22.39,0,0,0,803.63,361.26Z"/><path fill="none" stroke="#111416" stroke-linecap="round" stroke-linejoin="round" stroke-width="3" d="M788.59,367.76a15.32,15.32,0,0,0-9.2,14"/><rect width="14.65" height="8.87" x="787.37" y="320.17" fill="none" stroke="#111416" stroke-linecap="round" stroke-linejoin="round" stroke-width="3"/><path fill="#8af2ec" d="M752.39,411.43h-33.8a25.09,25.09,0,1,0,33.8,0Z"/><path fill="none" stroke="#111416" stroke-linecap="round" stroke-linejoin="round" stroke-width="3" d="M752.39,411.43h-33.8a25.09,25.09,0,1,0,33.8,0Z"/><path fill="none" stroke="#fff" stroke-linecap="round" stroke-linejoin="round" stroke-width="3" d="M717.55,431.34a18,18,0,0,0,9.36,14.4"/><path fill="none" stroke="#fff" stroke-linecap="round" stroke-linejoin="round" stroke-width="3" d="M721.72,418.53a18.37,18.37,0,0,0-3.32,5.86"/><line x1="735.49" x2="735.49" y1="455.02" y2="482.19" fill="none" stroke="#111416" stroke-linecap="round" stroke-linejoin="round" stroke-width="3"/><line x1="748.11" x2="722.87" y1="482.19" y2="482.19" fill="none" stroke="#111416" stroke-linecap="round" stroke-linejoin="round" stroke-width="3"/><polygon fill="none" stroke="#111416" stroke-linecap="round" stroke-linejoin="round" stroke-width="3" points="207.96 480.11 193.26 494.59 193.26 480.11 178.84 480.11 178.84 421.09 296.63 421.09 296.63 480.11 207.96 480.11"/><line x1="190.61" x2="280.07" y1="453.47" y2="453.47" fill="none" stroke="#111416" stroke-linecap="round" stroke-linejoin="round" stroke-width="3"/><line x1="190.61" x2="280.07" y1="467.41" y2="467.41" fill="none" stroke="#111416" stroke-linecap="round" stroke-linejoin="round" stroke-width="3"/><circle cx="201.77" cy="434.74" r="1.77" fill="#111416"/><circle cx="217.98" cy="434.74" r="1.77" fill="#111416"/><circle cx="234.19" cy="434.74" r="1.77" fill="#111416"/><circle cx="250.4" cy="434.74" r="1.77" fill="#111416"/><path fill="none" stroke="#8af2ec" stroke-linecap="round" stroke-width="3" d="M600.43,506.34a11.1,11.1,0,0,0,15.69,0,11.1,11.1,0,0,1,15.69,0,11.09,11.09,0,0,0,15.68,0,11.1,11.1,0,0,1,15.69,0"/><path fill="none" stroke="#fff" stroke-linecap="round" stroke-width="3" d="M1025.87,170.58a11.12,11.12,0,0,0,15.69,0,11.1,11.1,0,0,1,15.69,0,11.12,11.12,0,0,0,15.69,0,11.09,11.09,0,0,1,15.68,0"/><path fill="none" stroke="#fff" stroke-linecap="round" stroke-width="3" d="M441.58,636.53a11.1,11.1,0,0,0,15.69,0,11.1,11.1,0,0,1,15.69,0,11.1,11.1,0,0,0,15.69,0,11.1,11.1,0,0,1,15.69,0"/><path fill="none" stroke="#fff" stroke-linecap="round" stroke-width="3" d="M310.75,304.88a11.1,11.1,0,0,0,15.69,0,11.1,11.1,0,0,1,15.69,0,11.1,11.1,0,0,0,15.69,0,11.1,11.1,0,0,1,15.69,0"/><line x1="915.42" x2="903.02" y1="654.26" y2="654.26" fill="none" stroke="#8af2ec" stroke-linecap="round" stroke-width="3"/><line x1="879.86" x2="839.74" y1="654.26" y2="654.26" fill="none" stroke="#8af2ec" stroke-linecap="round" stroke-width="3"/><line x1="115.8" x2="103.4" y1="219.26" y2="219.26" fill="none" stroke="#fff" stroke-linecap="round" stroke-width="3"/><line x1="80.24" x2="14.4" y1="219.26" y2="219.26" fill="none" stroke="#fff" stroke-linecap="round" stroke-width="3"/><line x1="152.39" x2="76.71" y1="247.29" y2="247.29" fill="none" stroke="#8af2ec" stroke-linecap="round" stroke-width="3"/><line x1="648.72" x2="636.31" y1="204.4" y2="204.4" fill="none" stroke="#8af2ec" stroke-linecap="round" stroke-width="3"/><line x1="613.16" x2="554.11" y1="204.4" y2="204.4" fill="none" stroke="#8af2ec" stroke-linecap="round" stroke-width="3"/><line x1="563.77" x2="484.84" y1="233.25" y2="233.25" fill="none" stroke="#fff" stroke-linecap="round" stroke-width="3"/><line x1="1189.04" x2="1176.64" y1="563.2" y2="563.2" fill="none" stroke="#8af2ec" stroke-linecap="round" stroke-width="3"/><line x1="1153.48" x2="1087.03" y1="563.2" y2="563.2" fill="none" stroke="#8af2ec" stroke-linecap="round" stroke-width="3"/><line x1="1122.82" x2="1054.31" y1="537.97" y2="537.97" fill="none" stroke="#fff" stroke-linecap="round" stroke-width="3"/><line x1="172.96" x2="160.56" y1="693.48" y2="693.48" fill="none" stroke="#8af2ec" stroke-linecap="round" stroke-width="3"/><line x1="137.4" x2="70.95" y1="693.48" y2="693.48" fill="none" stroke="#8af2ec" stroke-linecap="round" stroke-width="3"/><line x1="212.99" x2="128.9" y1="673.77" y2="673.77" fill="none" stroke="#fff" stroke-linecap="round" stroke-width="3"/><line x1="949.77" x2="882.79" y1="676.73" y2="676.73" fill="none" stroke="#fff" stroke-linecap="round" stroke-width="3"/><line x1="365.69" x2="304.7" y1="534.13" y2="534.13" fill="none" stroke="#fff" stroke-linecap="round" stroke-width="3"/><line x1="891.6" x2="817.09" y1="118.41" y2="118.41" fill="none" stroke="#fff" stroke-linecap="round" stroke-width="3"/><line x1="796.65" x2="732.8" y1="597.97" y2="597.97" fill="none" stroke="#8af2ec" stroke-linecap="round" stroke-width="3"/><line x1="835.1" x2="780.11" y1="145.86" y2="145.86" fill="none" stroke="#fff" stroke-linecap="round" stroke-width="3"/><line x1="827.66" x2="789.17" y1="577.57" y2="577.57" fill="none" stroke="#fff" stroke-linecap="round" stroke-width="3"/><line x1="298.19" x2="291.47" y1="506.34" y2="506.34" fill="none" stroke="#8af2ec" stroke-linecap="round" stroke-width="3"/><line x1="278.92" x2="235.26" y1="506.34" y2="506.34" fill="none" stroke="#8af2ec" stroke-linecap="round" stroke-width="3"/><path fill="none" stroke="#8af2ec" stroke-linecap="round" stroke-linejoin="round" stroke-width="3" d="M1000.28,221.84a14.07,14.07,0,0,0-14.07-14.07,14.07,14.07,0,0,0,14.07-14.07,14.07,14.07,0,0,0,14.07,14.07A14.07,14.07,0,0,0,1000.28,221.84Z"/><path fill="none" stroke="#fff" stroke-linecap="round" stroke-linejoin="round" stroke-width="3" d="M540.25,551.25a14.07,14.07,0,0,0-14.07-14.07,14.07,14.07,0,0,0,14.07-14.07,14.07,14.07,0,0,0,14.07,14.07A14.07,14.07,0,0,0,540.25,551.25Z"/><path fill="none" stroke="#fff" stroke-linecap="round" stroke-linejoin="round" stroke-width="3" d="M162.06,233.33A14.07,14.07,0,0,0,148,219.26a14.07,14.07,0,0,0,14.07-14.07,14.07,14.07,0,0,0,14.07,14.07A14.07,14.07,0,0,0,162.06,233.33Z"/><line x1="331.14" x2="331.14" y1="496" y2="501.22" fill="none" stroke="#8af2ec" stroke-linecap="round" stroke-linejoin="round" stroke-width="3"/><line x1="326.01" x2="320.79" y1="506.34" y2="506.34" fill="none" stroke="#8af2ec" stroke-linecap="round" stroke-linejoin="round" stroke-width="3"/><line x1="331.14" x2="331.14" y1="516.69" y2="511.47" fill="none" stroke="#8af2ec" stroke-linecap="round" stroke-linejoin="round" stroke-width="3"/><line x1="336.26" x2="341.48" y1="506.34" y2="506.34" fill="none" stroke="#8af2ec" stroke-linecap="round" stroke-linejoin="round" stroke-width="3"/><line x1="940.63" x2="940.63" y1="608.04" y2="613.26" fill="none" stroke="#fff" stroke-linecap="round" stroke-linejoin="round" stroke-width="3"/><line x1="935.5" x2="930.28" y1="618.39" y2="618.39" fill="none" stroke="#fff" stroke-linecap="round" stroke-linejoin="round" stroke-width="3"/><line x1="940.63" x2="940.63" y1="628.73" y2="623.51" fill="none" stroke="#fff" stroke-linecap="round" stroke-linejoin="round" stroke-width="3"/><line x1="945.75" x2="950.97" y1="618.39" y2="618.39" fill="none" stroke="#fff" stroke-linecap="round" stroke-linejoin="round" stroke-width="3"/><line x1="211.46" x2="211.46" y1="631.44" y2="636.66" fill="none" stroke="#fff" stroke-linecap="round" stroke-linejoin="round" stroke-width="3"/><line x1="206.34" x2="201.11" y1="641.79" y2="641.79" fill="none" stroke="#fff" stroke-linecap="round" stroke-linejoin="round" stroke-width="3"/><line x1="211.46" x2="211.46" y1="652.14" y2="646.92" fill="none" stroke="#fff" stroke-linecap="round" stroke-linejoin="round" stroke-width="3"/><line x1="216.59" x2="221.81" y1="641.79" y2="641.79" fill="none" stroke="#fff" stroke-linecap="round" stroke-linejoin="round" stroke-width="3"/><line x1="520.27" x2="520.27" y1="194.05" y2="199.27" fill="none" stroke="#8af2ec" stroke-linecap="round" stroke-linejoin="round" stroke-width="3"/><line x1="515.14" x2="509.92" y1="204.4" y2="204.4" fill="none" stroke="#8af2ec" stroke-linecap="round" stroke-linejoin="round" stroke-width="3"/><line x1="520.27" x2="520.27" y1="214.74" y2="209.52" fill="none" stroke="#8af2ec" stroke-linecap="round" stroke-linejoin="round" stroke-width="3"/><line x1="525.39" x2="530.62" y1="204.4" y2="204.4" fill="none" stroke="#8af2ec" stroke-linecap="round" stroke-linejoin="round" stroke-width="3"/><line x1="388.62" x2="388.62" y1="320.47" y2="325.7" fill="none" stroke="#fff" stroke-linecap="round" stroke-linejoin="round" stroke-width="3"/><line x1="383.49" x2="378.27" y1="330.82" y2="330.82" fill="none" stroke="#fff" stroke-linecap="round" stroke-linejoin="round" stroke-width="3"/><line x1="388.62" x2="388.62" y1="341.17" y2="335.94" fill="none" stroke="#fff" stroke-linecap="round" stroke-linejoin="round" stroke-width="3"/><line x1="393.74" x2="398.96" y1="330.82" y2="330.82" fill="none" stroke="#fff" stroke-linecap="round" stroke-linejoin="round" stroke-width="3"/><circle cx="886.24" cy="518.57" r="8.59" fill="none" stroke="#fff" stroke-linecap="round" stroke-linejoin="round" stroke-width="3" transform="rotate(-5.27 885.894 518.401)"/><polyline fill="none" stroke="#fff" stroke-linecap="round" stroke-linejoin="round" stroke-width="3" points="863.81 532.45 853.16 543.09 863.81 553.74 853.16 564.38 863.81 575.02 853.16 585.67 863.81 596.31 853.16 606.96 863.81 617.6 853.16 628.24"/><polyline fill="none" stroke="#fff" stroke-linecap="round" stroke-linejoin="round" stroke-width="3" points="936.83 275.53 947.48 264.89 936.83 254.25 947.48 243.6 936.83 232.96 947.48 222.31 936.83 211.67 947.48 201.03"/><polyline fill="none" stroke="#fff" stroke-linecap="round" stroke-linejoin="round" stroke-width="3" points="359.42 709.43 370.06 698.79 359.42 688.14 370.06 677.5 359.42 666.86 370.06 656.22 359.42 645.57 370.06 634.93"/><polyline fill="none" stroke="#fff" stroke-linecap="round" stroke-linejoin="round" stroke-width="3" points="358.25 87.79 347.6 98.44 358.25 109.08 347.6 119.72 358.25 130.37 347.6 141.01"/><polyline fill="none" stroke="#fff" stroke-linecap="round" stroke-linejoin="round" stroke-width="3" points="42.8 424.52 32.16 435.17 42.8 445.81 32.16 456.45 42.8 467.1 32.16 477.74"/><polyline fill="none" stroke="#fff" stroke-linecap="round" stroke-linejoin="round" stroke-width="3" points="1115.78 404.84 1105.14 415.48 1115.78 426.12 1105.14 436.77 1115.78 447.41 1105.14 458.05"/></g></svg>