<svg version="1.1" viewBox="0.0 0.0 960.0 540.0" fill="none" stroke="none" stroke-linecap="square" stroke-miterlimit="10" xmlns:xlink="http://www.w3.org/1999/xlink" xmlns="http://www.w3.org/2000/svg"><clipPath id="g2fa3ddb4b37_0_0.0"><path d="m0 0l960.0 0l0 540.0l-960.0 0l0 -540.0z" clip-rule="nonzero"/></clipPath><g clip-path="url(#g2fa3ddb4b37_0_0.0)"><path fill="#000000" fill-opacity="0.0" d="m0 0l960.0 0l0 540.0l-960.0 0z" fill-rule="evenodd"/><path fill="#56b373" fill-opacity="0.6588" d="m180.65776 429.0286l595.37006 0l0 70.4252l-595.37006 0z" fill-rule="evenodd"/><path stroke="#666666" stroke-width="1.0" stroke-linejoin="round" stroke-linecap="butt" d="m180.65776 429.0286l595.37006 0l0 70.4252l-595.37006 0z" fill-rule="evenodd"/><path fill="#000000" d="m331.30392 465.9737l0 5.1875l-1.734375 0l0 -13.265625l4.890625 0q2.171875 0 3.40625 1.109375q1.234375 1.109375 1.234375 2.953125q0 1.921875 -1.21875 2.96875q-1.203125 1.046875 -3.453125 1.046875l-3.125 0zm0 -1.4375l3.15625 0q1.390625 0 2.140625 -0.65625q0.75 -0.65625 0.75 -1.90625q0 -1.1875 -0.75 -1.890625q-0.75 -0.71875 -2.046875 -0.75l-3.25 0l0 5.203125zm11.597595 6.625l-1.6875 0l0 -14.0l1.6875 0l0 14.0zm8.777435 0q-0.140625 -0.296875 -0.234375 -1.03125q-1.171875 1.21875 -2.8125 1.21875q-1.453125 0 -2.390625 -0.828125q-0.921875 -0.828125 -0.921875 -2.09375q0 -1.53125 1.15625 -2.375q1.171875 -0.859375 3.296875 -0.859375l1.640625 0l0 -0.78125q0 -0.890625 -0.53125 -1.40625q-0.515625 -0.53125 -1.546875 -0.53125q-0.90625 0 -1.515625 0.46875q-0.609375 0.453125 -0.609375 1.09375l-1.703125 0q0 -0.734375 0.515625 -1.421875q0.53125 -0.6875 1.421875 -1.078125q0.90625 -0.40625 1.984375 -0.40625q1.703125 0 2.671875 0.859375q0.96875 0.84375 1.0 2.328125l0 4.53125q0 1.359375 0.34375 2.171875l0 0.140625l-1.765625 0zm-2.796875 -1.28125q0.796875 0 1.5 -0.40625q0.71875 -0.421875 1.03125 -1.078125l0 -2.015625l-1.3125 0q-3.109375 0 -3.109375 1.8125q0 0.796875 0.53125 1.25q0.53125 0.4375 1.359375 0.4375zm9.14798 -10.96875l0 2.390625l1.84375 0l0 1.3125l-1.84375 0l0 6.109375q0 0.59375 0.234375 0.890625q0.25 0.296875 0.84375 0.296875q0.296875 0 0.8125 -0.109375l0 1.359375q-0.671875 0.1875 -1.296875 0.1875q-1.125 0 -1.703125 -0.6875q-0.578125 -0.6875 -0.578125 -1.9375l0 -6.109375l-1.796875 0l0 -1.3125l1.796875 0l0 -2.390625l1.6875 0zm4.6411133 12.25l0 -8.546875l-1.5625 0l0 -1.3125l1.5625 0l0 -1.015625q0 -1.578125 0.84375 -2.4375q0.84375 -0.875 2.390625 -0.875q0.59375 0 1.15625 0.15625l-0.09375 1.375q-0.421875 -0.09375 -0.90625 -0.09375q-0.8125 0 -1.265625 0.484375q-0.4375 0.484375 -0.4375 1.375l0 1.03125l2.09375 0l0 1.3125l-2.09375 0l0 8.546875l-1.6875 0zm5.1956177 -5.015625q0 -1.453125 0.5625 -2.609375q0.578125 -1.15625 1.59375 -1.78125q1.015625 -0.625 2.3125 -0.625q2.015625 0 3.25 1.390625q1.25 1.390625 1.25 3.703125l0 0.125q0 1.4375 -0.546875 2.578125q-0.546875 1.140625 -1.578125 1.78125q-1.015625 0.640625 -2.359375 0.640625q-2.0 0 -3.25 -1.390625q-1.234375 -1.40625 -1.234375 -3.703125l0 -0.109375zm1.6875 0.203125q0 1.640625 0.765625 2.640625q0.765625 0.984375 2.03125 0.984375q1.296875 0 2.046875 -1.0q0.75 -1.015625 0.75 -2.828125q0 -1.625 -0.765625 -2.625q-0.765625 -1.015625 -2.046875 -1.015625q-1.25 0 -2.015625 1.0q-0.765625 0.984375 -0.765625 2.84375zm14.171143 -3.53125q-0.390625 -0.0625 -0.84375 -0.0625q-1.65625 0 -2.25 1.40625l0 7.0l-1.671875 0l0 -9.859375l1.640625 0l0.015625 1.140625q0.828125 -1.3125 2.359375 -1.3125q0.484375 0 0.75 0.125l0 1.5625zm3.1253662 -1.515625l0.046875 1.09375q1.078125 -1.265625 2.921875 -1.265625q2.0625 0 2.8125 1.578125q0.5 -0.71875 1.28125 -1.140625q0.796875 -0.4375 1.859375 -0.4375q3.25 0 3.296875 3.421875l0 6.609375l-1.671875 0l0 -6.5q0 -1.0625 -0.484375 -1.578125q-0.484375 -0.53125 -1.625 -0.53125q-0.9375 0 -1.5625 0.5625q-0.609375 0.5625 -0.71875 1.5l0 6.546875l-1.6875 0l0 -6.453125q0 -2.15625 -2.109375 -2.15625q-1.65625 0 -2.265625 1.40625l0 7.203125l-1.6875 0l0 -9.859375l1.59375 0zm21.532562 9.859375l-1.75 0l0 -13.265625l1.75 0l0 13.265625zm4.52713 -9.859375l0.046875 1.234375q1.125 -1.40625 2.953125 -1.40625q3.125 0 3.15625 3.515625l0 6.515625l-1.6875 0l0 -6.515625q-0.015625 -1.078125 -0.5 -1.578125q-0.46875 -0.515625 -1.484375 -0.515625q-0.8125 0 -1.4375 0.4375q-0.609375 0.4375 -0.96875 1.15625l0 7.015625l-1.671875 0l0 -9.859375l1.59375 0zm9.528107 9.859375l0 -8.546875l-1.5625 0l0 -1.3125l1.5625 0l0 -1.015625q0 -1.578125 0.84375 -2.4375q0.84375 -0.875 2.390625 -0.875q0.59375 0 1.15625 0.15625l-0.09375 1.375q-0.421875 -0.09375 -0.90625 -0.09375q-0.8125 0 -1.265625 0.484375q-0.4375 0.484375 -0.4375 1.375l0 1.03125l2.09375 0l0 1.3125l-2.09375 0l0 8.546875l-1.6875 0zm10.414337 -8.34375q-0.390625 -0.0625 -0.84375 -0.0625q-1.65625 0 -2.25 1.40625l0 7.0l-1.671875 0l0 -9.859375l1.640625 0l0.015625 1.140625q0.828125 -1.3125 2.359375 -1.3125q0.484375 0 0.75 0.125l0 1.5625zm7.2608337 8.34375q-0.140625 -0.296875 -0.234375 -1.03125q-1.171875 1.21875 -2.8125 1.21875q-1.4531555 0 -2.3906555 -0.828125q-0.921875 -0.828125 -0.921875 -2.09375q0 -1.53125 1.15625 -2.375q1.171875 -0.859375 3.2969055 -0.859375l1.640625 0l0 -0.78125q0 -0.890625 -0.53125 -1.40625q-0.515625 -0.53125 -1.546875 -0.53125q-0.90625 0 -1.5156555 0.46875q-0.609375 0.453125 -0.609375 1.09375l-1.703125 0q0 -0.734375 0.515625 -1.421875q0.53125 -0.6875 1.421875 -1.078125q0.9062805 -0.40625 1.9844055 -0.40625q1.703125 0 2.671875 0.859375q0.96875 0.84375 1.0 2.328125l0 4.53125q0 1.359375 0.34375 2.171875l0 0.140625l-1.765625 0zm-2.796875 -1.28125q0.796875 0 1.5 -0.40625q0.71875 -0.421875 1.03125 -1.078125l0 -2.015625l-1.3125 0q-3.1094055 0 -3.1094055 1.8125q0 0.796875 0.53125 1.25q0.53125 0.4375 1.3594055 0.4375zm12.601074 -1.328125q0 -0.6875 -0.515625 -1.0625q-0.515625 -0.375 -1.796875 -0.640625q-1.28125 -0.28125 -2.03125 -0.65625q-0.75 -0.390625 -1.109375 -0.921875q-0.359375 -0.53125 -0.359375 -1.265625q0 -1.203125 1.015625 -2.03125q1.03125 -0.84375 2.625 -0.84375q1.671875 0 2.71875 0.859375q1.046875 0.859375 1.046875 2.21875l-1.6875 0q0 -0.703125 -0.59375 -1.203125q-0.59375 -0.5 -1.484375 -0.5q-0.921875 0 -1.4375 0.40625q-0.515625 0.390625 -0.515625 1.046875q0 0.609375 0.484375 0.921875q0.484375 0.3125 1.734375 0.59375q1.265625 0.28125 2.046875 0.671875q0.78125 0.390625 1.15625 0.9375q0.390625 0.546875 0.390625 1.34375q0 1.328125 -1.0625 2.125q-1.046875 0.796875 -2.734375 0.796875q-1.1875 0 -2.109375 -0.421875q-0.90625 -0.421875 -1.421875 -1.171875q-0.515625 -0.75 -0.515625 -1.625l1.6875 0q0.046875 0.84375 0.671875 1.34375q0.640625 0.5 1.6875 0.5q0.953125 0 1.53125 -0.390625q0.578125 -0.390625 0.578125 -1.03125zm6.166504 -9.640625l0 2.390625l1.84375 0l0 1.3125l-1.84375 0l0 6.109375q0 0.59375 0.234375 0.890625q0.25 0.296875 0.84375 0.296875q0.296875 0 0.8125 -0.109375l0 1.359375q-0.671875 0.1875 -1.296875 0.1875q-1.125 0 -1.703125 -0.6875q-0.578125 -0.6875 -0.578125 -1.9375l0 -6.109375l-1.796875 0l0 -1.3125l1.796875 0l0 -2.390625l1.6875 0zm8.578644 3.90625q-0.390625 -0.0625 -0.84375 -0.0625q-1.65625 0 -2.25 1.40625l0 7.0l-1.671875 0l0 -9.859375l1.640625 0l0.015625 1.140625q0.828125 -1.3125 2.359375 -1.3125q0.484375 0 0.75 0.125l0 1.5625zm7.6253967 7.375q-0.984375 1.15625 -2.890625 1.15625q-1.578125 0 -2.40625 -0.921875q-0.8125 -0.921875 -0.828125 -2.703125l0 -6.421875l1.6875 0l0 6.375q0 2.234375 1.828125 2.234375q1.921875 0 2.5625 -1.4375l0 -7.171875l1.6875 0l0 9.859375l-1.609375 0l-0.03125 -0.96875zm8.159607 -0.21875q0.890625 0 1.5625 -0.546875q0.6875 -0.546875 0.75 -1.375l1.59375 0q-0.046875 0.84375 -0.578125 1.609375q-0.53125 0.765625 -1.4375 1.234375q-0.890625 0.453125 -1.890625 0.453125q-2.015625 0 -3.203125 -1.34375q-1.1875 -1.34375 -1.1875 -3.6875l0 -0.28125q0 -1.4375 0.515625 -2.546875q0.53125 -1.125 1.515625 -1.734375q1.0 -0.625 2.34375 -0.625q1.65625 0 2.75 1.0q1.109375 0.984375 1.171875 2.5625l-1.59375 0q-0.0625 -0.953125 -0.71875 -1.5625q-0.65625 -0.625 -1.609375 -0.625q-1.28125 0 -2.0 0.921875q-0.703125 0.921875 -0.703125 2.671875l0 0.328125q0 1.703125 0.703125 2.625q0.703125 0.921875 2.015625 0.921875zm8.093506 -11.0625l0 2.390625l1.84375 0l0 1.3125l-1.84375 0l0 6.109375q0 0.59375 0.234375 0.890625q0.25 0.296875 0.84375 0.296875q0.296875 0 0.8125 -0.109375l0 1.359375q-0.671875 0.1875 -1.296875 0.1875q-1.125 0 -1.703125 -0.6875q-0.578125 -0.6875 -0.578125 -1.9375l0 -6.109375l-1.796875 0l0 -1.3125l1.796875 0l0 -2.390625l1.6875 0zm9.891113 11.28125q-0.984375 1.15625 -2.890625 1.15625q-1.578125 0 -2.40625 -0.921875q-0.8125 -0.921875 -0.828125 -2.703125l0 -6.421875l1.6875 0l0 6.375q0 2.234375 1.828125 2.234375q1.921875 0 2.5625 -1.4375l0 -7.171875l1.6875 0l0 9.859375l-1.609375 0l-0.03125 -0.96875zm8.972137 -7.375q-0.390625 -0.0625 -0.84375 -0.0625q-1.65625 0 -2.25 1.40625l0 7.0l-1.671875 0l0 -9.859375l1.640625 0l0.015625 1.140625q0.828125 -1.3125 2.359375 -1.3125q0.484375 0 0.75 0.125l0 1.5625zm5.452179 8.53125q-1.9999695 0 -3.2655945 -1.3125q-1.25 -1.328125 -1.25 -3.53125l0 -0.3125q0 -1.46875 0.5625 -2.609375q0.5625 -1.15625 1.5625 -1.796875q1.015625 -0.65625 2.1874695 -0.65625q1.921875 0 2.984375 1.265625q1.0625 1.265625 1.0625 3.625l0 0.6875l-6.6718445 0q0.03125 1.46875 0.84375 2.375q0.828125 0.890625 2.0780945 0.890625q0.890625 0 1.515625 -0.359375q0.625 -0.375 1.078125 -0.96875l1.03125 0.796875q-1.234375 1.90625 -3.71875 1.90625zm-0.203125 -8.84375q-1.0155945 0 -1.7187195 0.75q-0.6875 0.734375 -0.84375 2.078125l4.9374695 0l0 -0.125q-0.078125 -1.28125 -0.703125 -1.984375q-0.609375 -0.71875 -1.671875 -0.71875zm10.267944 5.09375q0 -0.953125 0.53125 -1.75q0.53125 -0.8125 2.03125 -1.875q-0.875 -1.078125 -1.1875 -1.734375q-0.296875 -0.65625 -0.296875 -1.296875q0 -1.515625 0.890625 -2.375q0.90625 -0.859375 2.421875 -0.859375q1.375 0 2.265625 0.8125q0.890625 0.796875 0.890625 2.0q0 0.796875 -0.40625 1.484375q-0.40625 0.671875 -1.40625 1.421875l-0.984375 0.71875l2.953125 3.53125q0.625 -1.1875 0.625 -2.640625l1.515625 0q0 2.328125 -1.125 3.859375l1.90625 2.265625l-2.03125 0l-0.875 -1.046875q-0.671875 0.59375 -1.578125 0.921875q-0.90625 0.3125 -1.859375 0.3125q-1.9375 0 -3.109375 -1.03125q-1.171875 -1.03125 -1.171875 -2.71875zm4.28125 2.375q1.34375 0 2.453125 -1.03125l-3.234375 -3.859375l-0.296875 0.21875q-1.515625 1.109375 -1.515625 2.296875q0 1.078125 0.6875 1.734375q0.703125 0.640625 1.90625 0.640625zm-1.515625 -9.09375q0 0.875 1.078125 2.1875l1.078125 -0.75q0.609375 -0.4375 0.84375 -0.828125q0.234375 -0.40625 0.234375 -0.96875q0 -0.609375 -0.46875 -1.015625q-0.453125 -0.40625 -1.140625 -0.40625q-0.75 0 -1.1875 0.515625q-0.4375 0.5 -0.4375 1.265625zm24.26178 4.078125q0 1.953125 -0.65625 3.40625q-0.640625 1.453125 -1.84375 2.21875q-1.203125 0.765625 -2.8125 0.765625q-1.5625 0 -2.78125 -0.765625q-1.203125 -0.78125 -1.875 -2.203125q-0.671875 -1.421875 -0.6875 -3.296875l0 -0.96875q0 -1.90625 0.65625 -3.375q0.671875 -1.46875 1.890625 -2.25q1.21875 -0.78125 2.78125 -0.78125q1.59375 0 2.8125 0.78125q1.21875 0.765625 1.859375 2.234375q0.65625 1.453125 0.65625 3.390625l0 0.84375zm-1.734375 -0.859375q0 -2.359375 -0.953125 -3.609375q-0.9375 -1.265625 -2.640625 -1.265625q-1.65625 0 -2.609375 1.265625q-0.953125 1.25 -0.984375 3.5l0 0.96875q0 2.28125 0.953125 3.59375q0.96875 1.3125 2.65625 1.3125q1.6875 0 2.609375 -1.234375q0.9375 -1.234375 0.96875 -3.546875l0 -0.984375zm12.419922 2.25q0 2.25 -1.03125 3.625q-1.015625 1.375 -2.78125 1.375q-1.796875 0 -2.828125 -1.140625l0 4.75l-1.671875 0l0 -13.65625l1.53125 0l0.078125 1.09375q1.03125 -1.265625 2.859375 -1.265625q1.78125 0 2.8125 1.34375q1.03125 1.328125 1.03125 3.71875l0 0.15625zm-1.671875 -0.203125q0 -1.65625 -0.71875 -2.625q-0.703125 -0.96875 -1.953125 -0.96875q-1.53125 0 -2.296875 1.359375l0 4.703125q0.765625 1.359375 2.328125 1.359375q1.203125 0 1.921875 -0.953125q0.71875 -0.96875 0.71875 -2.875zm7.904358 5.203125q-2.0 0 -3.265625 -1.3125q-1.25 -1.328125 -1.25 -3.53125l0 -0.3125q0 -1.46875 0.5625 -2.609375q0.5625 -1.15625 1.5625 -1.796875q1.015625 -0.65625 2.1875 -0.65625q1.921875 0 2.984375 1.265625q1.0625 1.265625 1.0625 3.625l0 0.6875l-6.671875 0q0.03125 1.46875 0.84375 2.375q0.828125 0.890625 2.078125 0.890625q0.890625 0 1.515625 -0.359375q0.625 -0.375 1.078125 -0.96875l1.03125 0.796875q-1.234375 1.90625 -3.71875 1.90625zm-0.203125 -8.84375q-1.015625 0 -1.71875 0.75q-0.6875 0.734375 -0.84375 2.078125l4.9375 0l0 -0.125q-0.078125 -1.28125 -0.703125 -1.984375q-0.609375 -0.71875 -1.671875 -0.71875zm10.774414 0.3125q-0.390625 -0.0625 -0.84375 -0.0625q-1.65625 0 -2.25 1.40625l0 7.0l-1.671875 0l0 -9.859375l1.640625 0l0.015625 1.140625q0.828125 -1.3125 2.359375 -1.3125q0.484375 0 0.75 0.125l0 1.5625zm7.260803 8.34375q-0.140625 -0.296875 -0.234375 -1.03125q-1.171875 1.21875 -2.8125 1.21875q-1.453125 0 -2.390625 -0.828125q-0.921875 -0.828125 -0.921875 -2.09375q0 -1.53125 1.15625 -2.375q1.171875 -0.859375 3.296875 -0.859375l1.640625 0l0 -0.78125q0 -0.890625 -0.53125 -1.40625q-0.515625 -0.53125 -1.546875 -0.53125q-0.90625 0 -1.515625 0.46875q-0.609375 0.453125 -0.609375 1.09375l-1.703125 0q0 -0.734375 0.515625 -1.421875q0.53125 -0.6875 1.421875 -1.078125q0.90625 -0.40625 1.984375 -0.40625q1.703125 0 2.671875 0.859375q0.96875 0.84375 1.0 2.328125l0 4.53125q0 1.359375 0.34375 2.171875l0 0.140625l-1.765625 0zm-2.796875 -1.28125q0.796875 0 1.5 -0.40625q0.71875 -0.421875 1.03125 -1.078125l0 -2.015625l-1.3125 0q-3.109375 0 -3.109375 1.8125q0 0.796875 0.53125 1.25q0.53125 0.4375 1.359375 0.4375zm9.14801 -10.96875l0 2.390625l1.84375 0l0 1.3125l-1.84375 0l0 6.109375q0 0.59375 0.234375 0.890625q0.25 0.296875 0.84375 0.296875q0.296875 0 0.8125 -0.109375l0 1.359375q-0.671875 0.1875 -1.296875 0.1875q-1.125 0 -1.703125 -0.6875q-0.578125 -0.6875 -0.578125 -1.9375l0 -6.109375l-1.796875 0l0 -1.3125l1.796875 0l0 -2.390625l1.6875 0zm5.6411133 12.25l-1.6875 0l0 -9.859375l1.6875 0l0 9.859375zm-1.828125 -12.46875q0 -0.40625 0.25 -0.6875q0.25 -0.296875 0.734375 -0.296875q0.5 0 0.75 0.296875q0.265625 0.28125 0.265625 0.6875q0 0.40625 -0.265625 0.6875q-0.25 0.265625 -0.75 0.265625q-0.484375 0 -0.734375 -0.265625q-0.25 -0.28125 -0.25 -0.6875zm4.07428 7.453125q0 -1.453125 0.5625 -2.609375q0.578125 -1.15625 1.59375 -1.78125q1.015625 -0.625 2.3125 -0.625q2.015625 0 3.25 1.390625q1.25 1.390625 1.25 3.703125l0 0.125q0 1.4375 -0.546875 2.578125q-0.546875 1.140625 -1.578125 1.78125q-1.015625 0.640625 -2.359375 0.640625q-2.0 0 -3.25 -1.390625q-1.234375 -1.40625 -1.234375 -3.703125l0 -0.109375zm1.6875 0.203125q0 1.640625 0.765625 2.640625q0.765625 0.984375 2.03125 0.984375q1.296875 0 2.046875 -1.0q0.75 -1.015625 0.75 -2.828125q0 -1.625 -0.765625 -2.625q-0.765625 -1.015625 -2.046875 -1.015625q-1.25 0 -2.015625 1.0q-0.765625 0.984375 -0.765625 2.84375zm10.999268 -5.046875l0.046875 1.234375q1.125 -1.40625 2.953125 -1.40625q3.125 0 3.15625 3.515625l0 6.515625l-1.6875 0l0 -6.515625q-0.015625 -1.078125 -0.5 -1.578125q-0.46875 -0.515625 -1.484375 -0.515625q-0.8125 0 -1.4375 0.4375q-0.609375 0.4375 -0.96875 1.15625l0 7.015625l-1.671875 0l0 -9.859375l1.59375 0zm14.434326 7.25q0 -0.6875 -0.515625 -1.0625q-0.515625 -0.375 -1.796875 -0.640625q-1.28125 -0.28125 -2.03125 -0.65625q-0.75 -0.390625 -1.109375 -0.921875q-0.359375 -0.53125 -0.359375 -1.265625q0 -1.203125 1.015625 -2.03125q1.03125 -0.84375 2.625 -0.84375q1.671875 0 2.71875 0.859375q1.046875 0.859375 1.046875 2.21875l-1.6875 0q0 -0.703125 -0.59375 -1.203125q-0.59375 -0.5 -1.484375 -0.5q-0.921875 0 -1.4375 0.40625q-0.515625 0.390625 -0.515625 1.046875q0 0.609375 0.484375 0.921875q0.484375 0.3125 1.734375 0.59375q1.265625 0.28125 2.046875 0.671875q0.78125 0.390625 1.15625 0.9375q0.390625 0.546875 0.390625 1.34375q0 1.328125 -1.0625 2.125q-1.046875 0.796875 -2.734375 0.796875q-1.1875 0 -2.109375 -0.421875q-0.90625 -0.421875 -1.421875 -1.171875q-0.515625 -0.75 -0.515625 -1.625l1.6875 0q0.046875 0.84375 0.671875 1.34375q0.640625 0.5 1.6875 0.5q0.953125 0 1.53125 -0.390625q0.578125 -0.390625 0.578125 -1.03125z" fill-rule="nonzero"/><path fill="#56b373" fill-opacity="0.6588" d="m705.8526 418.51822l0 -275.3701l65.29132 0l0 275.3701z" fill-rule="evenodd"/><path stroke="#666666" stroke-width="1.0" stroke-linejoin="round" stroke-linecap="butt" d="m705.8526 418.51822l0 -275.3701l65.29132 0l0 275.3701z" fill-rule="evenodd"/><path fill="#000000" d="m741.9495 360.72293l0 5.546875l3.46875 1.25l0 1.8125l-13.265625 -5.0625l0 -1.53125l13.265625 -5.078125l0 1.796875l-3.46875 1.265625zm-1.4375 5.03125l0 -4.515625l-6.203125 2.265625l6.203125 2.25zm-0.28125 -11.623413l5.1875 0l0 1.734375l-13.265625 0l0 -4.890625q0 -2.171875 1.109375 -3.40625q1.109375 -1.234375 2.953125 -1.234375q1.921875 0 2.96875 1.21875q1.046875 1.203125 1.046875 3.453125l0 3.125zm-1.4375 0l0 -3.15625q0 -1.390625 -0.65625 -2.140625q-0.65625 -0.75 -1.90625 -0.75q-1.1875 0 -1.890625 0.75q-0.71875 0.75 -0.75 2.046875l0 3.25l5.203125 0zm6.625 -11.910095l0 1.75l-13.265625 0l0 -1.75l13.265625 0zm-2.609375 -8.667755q-0.6875 0 -1.0625 0.515625q-0.375 0.515625 -0.640625 1.796875q-0.28125 1.28125 -0.65625 2.03125q-0.390625 0.75 -0.921875 1.109375q-0.53125 0.359375 -1.265625 0.359375q-1.203125 0 -2.03125 -1.015625q-0.84375 -1.03125 -0.84375 -2.625q0 -1.671875 0.859375 -2.71875q0.859375 -1.046875 2.21875 -1.046875l0 1.6875q-0.703125 0 -1.203125 0.59375q-0.5 0.59375 -0.5 1.484375q0 0.921875 0.40625 1.4375q0.390625 0.515625 1.046875 0.515625q0.609375 0 0.921875 -0.484375q0.3125 -0.484375 0.59375 -1.734375q0.28125 -1.265625 0.671875 -2.046875q0.390625 -0.78125 0.9375 -1.15625q0.546875 -0.390625 1.34375 -0.390625q1.328125 0 2.125 1.0625q0.796875 1.046875 0.796875 2.734375q0 1.1875 -0.421875 2.109375q-0.421875 0.90625 -1.171875 1.421875q-0.75 0.515625 -1.625 0.515625l0 -1.6875q0.84375 -0.046875 1.34375 -0.671875q0.5 -0.640625 0.5 -1.6875q0 -0.953125 -0.390625 -1.53125q-0.390625 -0.578125 -1.03125 -0.578125zm-0.953125 -8.144379q-0.953125 0 -1.75 -0.53125q-0.8125 -0.53125 -1.875 -2.03125q-1.078125 0.875 -1.734375 1.1875q-0.65625 0.296875 -1.296875 0.296875q-1.515625 0 -2.375 -0.890625q-0.859375 -0.90625 -0.859375 -2.421875q0 -1.375 0.8125 -2.265625q0.796875 -0.890625 2.0 -0.890625q0.796875 0 1.484375 0.40625q0.671875 0.40625 1.421875 1.40625l0.71875 0.984375l3.53125 -2.953125q-1.1875 -0.625 -2.640625 -0.625l0 -1.515625q2.328125 0 3.859375 1.125l2.265625 -1.90625l0 2.03125l-1.046875 0.875q0.59375 0.671875 0.921875 1.578125q0.3125 0.90625 0.3125 1.859375q0 1.9375 -1.03125 3.109375q-1.03125 1.171875 -2.71875 1.171875zm2.375 -4.28125q0 -1.34375 -1.03125 -2.453125l-3.859375 3.234375l0.21875 0.296875q1.109375 1.515625 2.296875 1.515625q1.078125 0 1.734375 -0.6875q0.640625 -0.703125 0.640625 -1.90625zm-9.09375 1.515625q0.875 0 2.1875 -1.078125l-0.75 -1.078125q-0.4375 -0.609375 -0.828125 -0.84375q-0.40625 -0.234375 -0.96875 -0.234375q-0.609375 0 -1.015625 0.46875q-0.40625 0.453125 -0.40625 1.140625q0 0.75 0.515625 1.1875q0.5 0.4375 1.265625 0.4375zm4.15625 -21.558655l0 5.75l4.6875 0l0 -6.6875l1.4375 0l0 8.421875l-13.265625 0l0 -8.328125l1.4375 0l0 6.59375l4.265625 0l0 -5.75l1.4375 0zm3.84375 -5.8664856l-7.578125 -2.4375l0 -1.71875l9.859375 3.53125l0 1.28125l-9.859375 3.578125l0 -1.71875l7.578125 -2.515625zm2.46875 -9.746246q0 2.0 -1.3125 3.265625q-1.328125 1.25 -3.53125 1.25l-0.3125 0q-1.46875 0 -2.609375 -0.5625q-1.15625 -0.5625 -1.796875 -1.5625q-0.65625 -1.015625 -0.65625 -2.1875q0 -1.921875 1.265625 -2.984375q1.265625 -1.0625 3.625 -1.0625l0.6875 0l0 6.671875q1.46875 -0.03125 2.375 -0.84375q0.890625 -0.828125 0.890625 -2.078125q0 -0.890625 -0.359375 -1.515625q-0.375 -0.625 -0.96875 -1.078125l0.796875 -1.03125q1.90625 1.234375 1.90625 3.71875zm-8.84375 0.203125q0 1.015625 0.75 1.71875q0.734375 0.6875 2.078125 0.84375l0 -4.9375l-0.125 0q-1.28125 0.078125 -1.984375 0.703125q-0.71875 0.609375 -0.71875 1.671875zm-1.203125 -7.6025696l1.234375 -0.046875q-1.40625 -1.125 -1.40625 -2.953125q0 -3.125 3.515625 -3.15625l6.515625 0l0 1.6875l-6.515625 0q-1.078125 0.015625 -1.578125 0.5q-0.515625 0.46875 -0.515625 1.484375q0 0.8125 0.4375 1.4375q0.4375 0.609375 1.15625 0.96875l7.015625 0l0 1.671875l-9.859375 0l0 -1.59375zm-2.390625 -10.981232l2.390625 0l0 -1.84375l1.3125 0l0 1.84375l6.109375 0q0.59375 0 0.890625 -0.234375q0.296875 -0.25 0.296875 -0.84375q0 -0.296875 -0.109375 -0.8125l1.359375 0q0.1875 0.671875 0.1875 1.296875q0 1.125 -0.6875 1.703125q-0.6875 0.578125 -1.9375 0.578125l-6.109375 0l0 1.796875l-1.3125 0l0 -1.796875l-2.390625 0l0 -1.6875zm9.640625 -14.165878q-0.6875 0 -1.0625 0.515625q-0.375 0.515625 -0.640625 1.796875q-0.28125 1.2812347 -0.65625 2.0312347q-0.390625 0.75 -0.921875 1.109375q-0.53125 0.359375 -1.265625 0.359375q-1.203125 0 -2.03125 -1.015625q-0.84375 -1.03125 -0.84375 -2.6249847q0 -1.671875 0.859375 -2.71875q0.859375 -1.046875 2.21875 -1.046875l0 1.6875q-0.703125 0 -1.203125 0.59375q-0.5 0.59375 -0.5 1.484375q0 0.92185974 0.40625 1.4374847q0.390625 0.515625 1.046875 0.515625q0.609375 0 0.921875 -0.484375q0.3125 -0.484375 0.59375 -1.7343597q0.28125 -1.265625 0.671875 -2.046875q0.390625 -0.78125 0.9375 -1.15625q0.546875 -0.390625 1.34375 -0.390625q1.328125 0 2.125 1.0625q0.796875 1.046875 0.796875 2.734375q0 1.1874847 -0.421875 2.1093597q-0.421875 0.90625 -1.171875 1.421875q-0.75 0.515625 -1.625 0.515625l0 -1.6875q0.84375 -0.046875 1.34375 -0.671875q0.5 -0.640625 0.5 -1.6874847q0 -0.953125 -0.390625 -1.53125q-0.390625 -0.578125 -1.03125 -0.578125zm-9.640625 -6.166504l2.390625 0l0 -1.84375l1.3125 0l0 1.84375l6.109375 0q0.59375 0 0.890625 -0.234375q0.296875 -0.25 0.296875 -0.84375q0 -0.296875 -0.109375 -0.8125l1.359375 0q0.1875 0.671875 0.1875 1.296875q0 1.125 -0.6875 1.703125q-0.6875 0.578125 -1.9375 0.578125l-6.109375 0l0 1.796875l-1.3125 0l0 -1.796875l-2.390625 0l0 -1.6875zm3.90625 -8.578629q-0.0625 0.390625 -0.0625 0.84375q0 1.65625 1.40625 2.25l7.0 0l0 1.671875l-9.859375 0l0 -1.640625l1.140625 -0.015625q-1.3125 -0.828125 -1.3125 -2.359375q0 -0.484375 0.125 -0.75l1.5625 0zm8.53125 -5.4522095q0 2.0 -1.3125 3.265625q-1.328125 1.25 -3.53125 1.25l-0.3125 0q-1.46875 0 -2.609375 -0.5625q-1.15625 -0.5625 -1.796875 -1.5625q-0.65625 -1.015625 -0.65625 -2.1875q0 -1.921875 1.265625 -2.984375q1.265625 -1.0625 3.625 -1.0625l0.6875 0l0 6.671875q1.46875 -0.03125 2.375 -0.84375q0.890625 -0.828125 0.890625 -2.078125q0 -0.890625 -0.359375 -1.515625q-0.375 -0.625 -0.96875 -1.078125l0.796875 -1.03125q1.90625 1.234375 1.90625 3.71875zm-8.84375 0.203125q0 1.015625 0.75 1.71875q0.734375 0.6875 2.078125 0.84375l0 -4.9375l-0.125 0q-1.28125 0.078125 -1.984375 0.703125q-0.71875 0.609375 -0.71875 1.671875zm8.65625 -12.086929q-0.296875 0.140625 -1.03125 0.234375q1.21875 1.171875 1.21875 2.8125q0 1.453125 -0.828125 2.390625q-0.828125 0.921875 -2.09375 0.921875q-1.53125 0 -2.375 -1.15625q-0.859375 -1.171875 -0.859375 -3.296875l0 -1.640625l-0.78125 0q-0.890625 0 -1.40625 0.53125q-0.53125 0.515625 -0.53125 1.546875q0 0.90625 0.46875 1.515625q0.453125 0.609375 1.09375 0.609375l0 1.703125q-0.734375 0 -1.421875 -0.515625q-0.6875 -0.53125 -1.078125 -1.421875q-0.40625 -0.90625 -0.40625 -1.984375q0 -1.703125 0.859375 -2.671875q0.84375 -0.96875 2.328125 -1.0l4.53125 0q1.359375 0 2.171875 -0.34375l0.140625 0l0 1.765625zm-1.28125 2.796875q0 -0.796875 -0.40625 -1.5q-0.421875 -0.71875 -1.078125 -1.03125l-2.015625 0l0 1.3125q0 3.109375 1.8125 3.109375q0.796875 0 1.25 -0.53125q0.4375 -0.53125 0.4375 -1.359375zm-8.578125 -8.444855l1.09375 -0.046875q-1.265625 -1.078125 -1.265625 -2.921875q0 -2.0625 1.578125 -2.8125q-0.71875 -0.5 -1.140625 -1.28125q-0.4375 -0.796875 -0.4375 -1.859375q0 -3.25 3.421875 -3.296875l6.609375 0l0 1.671875l-6.5 0q-1.0625 0 -1.578125 0.484375q-0.53125 0.484375 -0.53125 1.625q0 0.9375 0.5625 1.5625q0.5625 0.609375 1.5 0.71875l6.546875 0l0 1.6875l-6.453125 0q-2.15625 0 -2.15625 2.109375q0 1.65625 1.40625 2.265625l7.203125 0l0 1.6875l-9.859375 0l0 -1.59375zm7.25 -20.507797q-0.6875 0 -1.0625 0.515625q-0.375 0.515625 -0.640625 1.796875q-0.28125 1.28125 -0.65625 2.03125q-0.390625 0.75 -0.921875 1.109375q-0.53125 0.359375 -1.265625 0.359375q-1.203125 0 -2.03125 -1.015625q-0.84375 -1.03125 -0.84375 -2.625q0 -1.671875 0.859375 -2.71875q0.859375 -1.046875 2.21875 -1.046875l0 1.6875q-0.703125 0 -1.203125 0.59375q-0.5 0.59375 -0.5 1.484375q0 0.921875 0.40625 1.4375q0.390625 0.515625 1.046875 0.515625q0.609375 0 0.921875 -0.484375q0.3125 -0.484375 0.59375 -1.734375q0.28125 -1.265625 0.671875 -2.046875q0.390625 -0.78125 0.9375 -1.15625q0.546875 -0.390625 1.34375 -0.390625q1.328125 0 2.125 1.0625q0.796875 1.046875 0.796875 2.734375q0 1.1875 -0.421875 2.109375q-0.421875 0.90625 -1.171875 1.421875q-0.75 0.515625 -1.625 0.515625l0 -1.6875q0.84375 -0.046875 1.34375 -0.671875q0.5 -0.640625 0.5 -1.6875q0 -0.953125 -0.390625 -1.53125q-0.390625 -0.578125 -1.03125 -0.578125z" fill-rule="nonzero"/><path fill="#56b373" fill-opacity="0.6588" d="m443.2546 418.51822l0 -275.3701l65.29135 0l0 275.3701z" fill-rule="evenodd"/><path stroke="#666666" stroke-width="1.0" stroke-linejoin="round" stroke-linecap="butt" d="m443.2546 418.51822l0 -275.3701l65.29135 0l0 275.3701z" fill-rule="evenodd"/><path fill="#000000" d="m482.82028 353.92026l-13.265625 0l0 -3.734375q0 -1.734375 0.765625 -3.0625q0.765625 -1.328125 2.1875 -2.046875q1.40625 -0.734375 3.234375 -0.734375l0.84375 0q1.875 0 3.296875 0.71875q1.40625 0.71875 2.171875 2.0625q0.75 1.34375 0.765625 3.140625l0 3.65625zm-11.828125 -1.734375l10.390625 0l0 -1.84375q0 -2.03125 -1.25 -3.15625q-1.25 -1.125 -3.578125 -1.125l-0.78125 0q-2.25 0 -3.5 1.0625q-1.265625 1.0625 -1.28125 3.015625l0 2.046875zm10.859375 -16.312195q1.15625 0.984375 1.15625 2.890625q0 1.578125 -0.921875 2.40625q-0.921875 0.8125 -2.703125 0.828125l-6.421875 0l0 -1.6875l6.375 0q2.234375 0 2.234375 -1.828125q0 -1.921875 -1.4375 -2.5625l-7.171875 0l0 -1.6875l9.859375 0l0 1.609375l-0.96875 0.03125zm-7.375 -8.972107q-0.0625 0.390625 -0.0625 0.84375q0 1.65625 1.40625 2.25l7.0 0l0 1.671875l-9.859375 0l0 -1.640625l1.140625 -0.015625q-1.3125 -0.828125 -1.3125 -2.359375q0 -0.484375 0.125 -0.75l1.5625 0zm8.34375 -7.260803q-0.296875 0.140625 -1.03125 0.234375q1.21875 1.171875 1.21875 2.8125q0 1.453125 -0.828125 2.390625q-0.828125 0.921875 -2.09375 0.921875q-1.53125 0 -2.375 -1.15625q-0.859375 -1.171875 -0.859375 -3.296875l0 -1.640625l-0.78125 0q-0.890625 0 -1.40625 0.53125q-0.53125 0.515625 -0.53125 1.546875q0 0.90625 0.46875 1.515625q0.453125 0.609375 1.09375 0.609375l0 1.703125q-0.734375 0 -1.421875 -0.515625q-0.6875 -0.53125 -1.078125 -1.421875q-0.40625 -0.90625 -0.40625 -1.984375q0 -1.703125 0.859375 -2.671875q0.84375 -0.96875 2.328125 -1.0l4.53125 0q1.359375 0 2.171875 -0.34375l0.140625 0l0 1.765625zm-1.28125 2.796875q0 -0.796875 -0.40625 -1.5q-0.421875 -0.71875 -1.078125 -1.03125l-2.015625 0l0 1.3125q0 3.109375 1.8125 3.109375q0.796875 0 1.25 -0.53125q0.4375 -0.53125 0.4375 -1.359375zm-3.53125 -15.21048q2.25 0 3.625 1.046875q1.375 1.03125 1.375 2.78125q0 1.875 -1.328125 2.890625l1.140625 0.078125l0 1.546875l-14.0 0l0 -1.671875l5.234375 0q-1.265625 -1.03125 -1.265625 -2.8125q0 -1.796875 1.359375 -2.828125q1.34375 -1.03125 3.703125 -1.03125l0.15625 0zm-0.203125 1.6875q-1.71875 0 -2.65625 0.671875q-0.9375 0.65625 -0.9375 1.90625q0 1.671875 1.546875 2.40625l4.265625 0q1.546875 -0.78125 1.546875 -2.421875q0 -1.21875 -0.9375 -1.890625q-0.9375 -0.671875 -2.828125 -0.671875zm5.015625 -5.6387024l0 1.6875l-14.0 0l0 -1.6875l14.0 0zm0.1875 -6.777405q0 2.0 -1.3125 3.265625q-1.328125 1.25 -3.53125 1.25l-0.3125 0q-1.46875 0 -2.609375 -0.5625q-1.15625 -0.5625 -1.796875 -1.5625q-0.65625 -1.015625 -0.65625 -2.1875q0 -1.921875 1.265625 -2.984375q1.265625 -1.0625 3.625 -1.0625l0.6875 0l0 6.671875q1.46875 -0.03125 2.375 -0.84375q0.890625 -0.828125 0.890625 -2.078125q0 -0.890625 -0.359375 -1.515625q-0.375 -0.625 -0.96875 -1.078125l0.796875 -1.03125q1.90625 1.234375 1.90625 3.71875zm-8.84375 0.203125q0 1.015625 0.75 1.71875q0.734375 0.6875 2.078125 0.84375l0 -4.9375l-0.125 0q-1.28125 0.078125 -1.984375 0.703125q-0.71875 0.609375 -0.71875 1.671875zm2.53125 -18.37732l0 5.75l4.6875 0l0 -6.6875l1.4375 0l0 8.421875l-13.265625 0l0 -8.328125l1.4375 0l0 6.59375l4.265625 0l0 -5.75l1.4375 0zm-0.140625 -6.1503296l-3.59375 -2.1875l0 -1.96875l4.875 3.21875l4.984375 -3.328125l0 1.953125l-3.6875 2.28125l3.6875 2.28125l0 1.953125l-4.984375 -3.328125l-4.875 3.234375l0 -1.953125l3.59375 -2.15625zm6.453125 -9.845093q0 2.0 -1.3125 3.265625q-1.328125 1.25 -3.53125 1.25l-0.3125 0q-1.46875 0 -2.609375 -0.5625q-1.15625 -0.5625 -1.796875 -1.5625q-0.65625 -1.015625 -0.65625 -2.1875q0 -1.921875 1.265625 -2.984375q1.265625 -1.0625 3.625 -1.0625l0.6875 0l0 6.671875q1.46875 -0.03125 2.375 -0.84375q0.890625 -0.828125 0.890625 -2.078125q0 -0.890625 -0.359375 -1.515625q-0.375 -0.625 -0.96875 -1.078125l0.796875 -1.03125q1.90625 1.234375 1.90625 3.71875zm-8.84375 0.203125q0 1.015625 0.75 1.71875q0.734375 0.6875 2.078125 0.84375l0 -4.9375l-0.125 0q-1.28125 0.078125 -1.984375 0.703125q-0.71875 0.609375 -0.71875 1.671875zm7.46875 -9.961929q0 -0.890625 -0.546875 -1.5625q-0.546875 -0.6875 -1.375 -0.75l0 -1.59375q0.84375 0.046875 1.609375 0.578125q0.765625 0.53125 1.234375 1.4375q0.453125 0.890625 0.453125 1.890625q0 2.015625 -1.34375 3.203125q-1.34375 1.1874847 -3.6875 1.1874847l-0.28125 0q-1.4375 0 -2.546875 -0.515625q-1.125 -0.53123474 -1.734375 -1.5156097q-0.625 -1.0 -0.625 -2.34375q0 -1.65625 1.0 -2.75q0.984375 -1.109375 2.5625 -1.171875l0 1.59375q-0.953125 0.0625 -1.5625 0.71875q-0.625 0.65625 -0.625 1.609375q0 1.28125 0.921875 2.0q0.921875 0.703125 2.671875 0.703125l0.328125 0q1.703125 0 2.625 -0.703125q0.921875 -0.703125 0.921875 -2.015625zm0.21875 -11.890381q1.15625 0.984375 1.15625 2.890625q0 1.578125 -0.921875 2.40625q-0.921875 0.8125 -2.703125 0.828125l-6.421875 0l0 -1.6875l6.375 0q2.234375 0 2.234375 -1.828125q0 -1.921875 -1.4375 -2.5625l-7.171875 0l0 -1.6875l9.859375 0l0 1.609375l-0.96875 0.03125zm-11.28125 -6.487747l2.390625 0l0 -1.84375l1.3125 0l0 1.84375l6.109375 0q0.59375 0 0.890625 -0.234375q0.296875 -0.25 0.296875 -0.84375q0 -0.296875 -0.109375 -0.8125l1.359375 0q0.1875 0.671875 0.1875 1.296875q0 1.125 -0.6875 1.703125q-0.6875 0.578125 -1.9375 0.578125l-6.109375 0l0 1.796875l-1.3125 0l0 -1.796875l-2.390625 0l0 -1.6875zm12.25 -5.6411285l0 1.6875l-9.859375 0l0 -1.6875l9.859375 0zm-12.46875 1.828125q-0.40625 0 -0.6875 -0.25q-0.296875 -0.25 -0.296875 -0.734375q0 -0.5 0.296875 -0.75q0.28125 -0.265625 0.6875 -0.265625q0.40625 0 0.6875 0.265625q0.265625 0.25 0.265625 0.75q0 0.484375 -0.265625 0.734375q-0.28125 0.25 -0.6875 0.25zm7.453125 -4.074295q-1.453125 0 -2.609375 -0.5625q-1.15625 -0.578125 -1.78125 -1.59375q-0.625 -1.015625 -0.625 -2.3125q0 -2.015625 1.390625 -3.25q1.390625 -1.25 3.703125 -1.25l0.125 0q1.4375 0 2.578125 0.546875q1.140625 0.546875 1.78125 1.578125q0.640625 1.015625 0.640625 2.359375q0 2.0 -1.390625 3.25q-1.40625 1.234375 -3.703125 1.234375l-0.109375 0zm0.203125 -1.6875q1.640625 0 2.640625 -0.765625q0.984375 -0.765625 0.984375 -2.03125q0 -1.296875 -1.0 -2.046875q-1.015625 -0.75 -2.828125 -0.75q-1.625 0 -2.625 0.765625q-1.015625 0.765625 -1.015625 2.046875q0 1.25 1.0 2.015625q0.984375 0.765625 2.84375 0.765625zm-5.046875 -10.999268l1.234375 -0.046875q-1.40625 -1.125 -1.40625 -2.953125q0 -3.125 3.515625 -3.15625l6.515625 0l0 1.6875l-6.515625 0q-1.078125 0.015625 -1.578125 0.5q-0.515625 0.46875 -0.515625 1.484375q0 0.8125 0.4375 1.4375q0.4375 0.609375 1.15625 0.96875l7.015625 0l0 1.671875l-9.859375 0l0 -1.59375z" fill-rule="nonzero"/><path fill="#56b373" fill-opacity="0.6588" d="m180.65665 415.28625l0 -275.3701l65.29135 0l0 275.3701z" fill-rule="evenodd"/><path stroke="#666666" stroke-width="1.0" stroke-linejoin="round" stroke-linecap="butt" d="m180.65665 415.28625l0 -275.3701l65.29135 0l0 275.3701z" fill-rule="evenodd"/><path fill="#000000" d="m220.22232 376.8067l0 1.765625l-6.125 0l0 6.6875l6.125 0l0 1.734375l-13.265625 0l0 -1.734375l5.703125 0l0 -6.6875l-5.703125 0l0 -1.765625l13.265625 0zm-2.46875 -6.0654907l-7.390625 -2.296875l0 -1.796875l11.375 3.953125q2.46875 0.921875 2.46875 2.921875l-0.03125 0.328125l-0.125 0.625l-1.359375 0l0.03125 -0.453125q0 -0.859375 -0.34375 -1.328125q-0.34375 -0.484375 -1.265625 -0.796875l-1.0 -0.375l-9.75 3.515625l0 -1.84375l7.390625 -2.453125zm-2.34375 -13.952118q2.25 0 3.625 1.046875q1.375 1.03125 1.375 2.78125q0 1.875 -1.328125 2.890625l1.140625 0.078125l0 1.546875l-14.0 0l0 -1.671875l5.234375 0q-1.265625 -1.03125 -1.265625 -2.8125q0 -1.796875 1.359375 -2.828125q1.34375 -1.03125 3.703125 -1.03125l0.15625 0zm-0.203125 1.6875q-1.71875 0 -2.65625 0.671875q-0.9375 0.65625 -0.9375 1.90625q0 1.671875 1.546875 2.40625l4.265625 0q1.546875 -0.78125 1.546875 -2.421875q0 -1.21875 -0.9375 -1.890625q-0.9375 -0.671875 -2.828125 -0.671875zm-3.328125 -8.576172q-0.0625 0.390625 -0.0625 0.84375q0 1.65625 1.40625 2.25l7.0 0l0 1.671875l-9.859375 0l0 -1.640625l1.140625 -0.015625q-1.3125 -0.828125 -1.3125 -2.359375q0 -0.484375 0.125 -0.75l1.5625 0zm8.34375 -3.3753967l0 1.6875l-9.859375 0l0 -1.6875l9.859375 0zm-12.46875 1.828125q-0.40625 0 -0.6875 -0.25q-0.296875 -0.25 -0.296875 -0.734375q0 -0.5 0.296875 -0.75q0.28125 -0.265625 0.6875 -0.265625q0.40625 0 0.6875 0.265625q0.265625 0.25 0.265625 0.75q0 0.484375 -0.265625 0.734375q-0.28125 0.25 -0.6875 0.25zm7.453125 -4.10553q-2.265625 0 -3.640625 -1.078125q-1.375 -1.078125 -1.375 -2.8125q0 -1.734375 1.171875 -2.75l-5.140625 0l0 -1.6875l14.0 0l0 1.546875l-1.0625 0.09375q1.25 1.0 1.25 2.8125q0 1.703125 -1.40625 2.796875q-1.40625 1.078125 -3.65625 1.078125l-0.140625 0zm0.203125 -1.6875q1.671875 0 2.625 -0.6875q0.9375 -0.703125 0.9375 -1.921875q0 -1.609375 -1.4375 -2.34375l-4.53125 0q-1.390625 0.765625 -1.390625 2.328125q0 1.234375 0.953125 1.9375q0.953125 0.6875 2.84375 0.6875zm-0.140625 -12.755859l0 4.4375l-1.375 0l0 -4.4375l1.375 0zm3.765625 -5.5999756q0 -0.890625 -0.546875 -1.5625q-0.546875 -0.6875 -1.375 -0.75l0 -1.59375q0.84375 0.046875 1.609375 0.578125q0.765625 0.53125 1.234375 1.4375q0.453125 0.890625 0.453125 1.890625q0 2.015625 -1.34375 3.203125q-1.34375 1.1875 -3.6875 1.1875l-0.28125 0q-1.4375 0 -2.546875 -0.515625q-1.125 -0.53125 -1.734375 -1.515625q-0.625 -1.0 -0.625 -2.34375q0 -1.65625 1.0 -2.75q0.984375 -1.109375 2.5625 -1.171875l0 1.59375q-0.953125 0.0625 -1.5625 0.71875q-0.625 0.65625 -0.625 1.609375q0 1.28125 0.921875 2.0q0.921875 0.703125 2.671875 0.703125l0.328125 0q1.703125 0 2.625 -0.703125q0.921875 -0.703125 0.921875 -2.015625zm1.1875 -7.640381l0 1.6875l-14.0 0l0 -1.6875l14.0 0zm-5.015625 -2.2461853q-1.453125 0 -2.609375 -0.5625q-1.15625 -0.578125 -1.78125 -1.59375q-0.625 -1.015625 -0.625 -2.3125q0 -2.015625 1.390625 -3.25q1.390625 -1.25 3.703125 -1.25l0.125 0q1.4375 0 2.578125 0.546875q1.140625 0.546875 1.78125 1.578125q0.640625 1.015625 0.640625 2.359375q0 2.0 -1.390625 3.25q-1.40625 1.234375 -3.703125 1.234375l-0.109375 0zm0.203125 -1.6875q1.640625 0 2.640625 -0.765625q0.984375 -0.765625 0.984375 -2.03125q0 -1.296875 -1.0 -2.046875q-1.015625 -0.75 -2.828125 -0.75q-1.625 0 -2.625 0.765625q-1.015625 0.765625 -1.015625 2.046875q0 1.25 1.0 2.015625q0.984375 0.765625 2.84375 0.765625zm3.84375 -15.483643q1.15625 0.984375 1.15625 2.890625q0 1.578125 -0.921875 2.40625q-0.921875 0.8125 -2.703125 0.828125l-6.421875 0l0 -1.6875l6.375 0q2.234375 0 2.234375 -1.828125q0 -1.921875 -1.4375 -2.5625l-7.171875 0l0 -1.6875l9.859375 0l0 1.609375l-0.96875 0.03125zm-4.046875 -3.784607q-2.265625 0 -3.640625 -1.078125q-1.375 -1.078125 -1.375 -2.8125q0 -1.734375 1.171875 -2.75l-5.140625 0l0 -1.6875l14.0 0l0 1.546875l-1.0625 0.09375q1.25 1.0 1.25 2.8125q0 1.703125 -1.40625 2.796875q-1.40625 1.078125 -3.65625 1.078125l-0.140625 0zm0.203125 -1.6875q1.671875 0 2.625 -0.6875q0.9375 -0.703125 0.9375 -1.921875q0 -1.609375 -1.4375 -2.34375l-4.53125 0q-1.390625 0.765625 -1.390625 2.328125q0 1.234375 0.953125 1.9375q0.953125 0.6875 2.84375 0.6875zm4.8125 -16.014984l0 1.75l-13.265625 0l0 -1.75l13.265625 0zm-9.859375 -4.52713l1.234375 -0.046875q-1.40625 -1.125 -1.40625 -2.953125q0 -3.125 3.515625 -3.15625l6.515625 0l0 1.6875l-6.515625 0q-1.078125 0.015625 -1.578125 0.5q-0.515625 0.46875 -0.515625 1.484375q0 0.8125 0.4375 1.4375q0.4375 0.609375 1.15625 0.96875l7.015625 0l0 1.671875l-9.859375 0l0 -1.59375zm9.859375 -9.528107l-8.546875 0l0 1.5625l-1.3125 0l0 -1.5625l-1.015625 0q-1.578125 0 -2.4375 -0.84375q-0.875 -0.84375 -0.875 -2.390625q0 -0.59375 0.15625 -1.15625l1.375 0.09375q-0.09375 0.421875 -0.09375 0.90625q0 0.8125 0.484375 1.265625q0.484375 0.4375 1.375 0.4375l1.03125 0l0 -2.09375l1.3125 0l0 2.09375l8.546875 0l0 1.6875zm-8.34375 -10.414352q-0.0625 0.390625 -0.0625 0.84375q0 1.65625 1.40625 2.25l7.0 0l0 1.671875l-9.859375 0l0 -1.640625l1.140625 -0.015625q-1.3125 -0.828125 -1.3125 -2.359375q0 -0.484375 0.125 -0.75l1.5625 0zm8.34375 -7.260803q-0.296875 0.140625 -1.03125 0.234375q1.21875 1.171875 1.21875 2.8125q0 1.453125 -0.828125 2.390625q-0.828125 0.921875 -2.09375 0.921875q-1.53125 0 -2.375 -1.15625q-0.859375 -1.171875 -0.859375 -3.296875l0 -1.640625l-0.78125 0q-0.890625 0 -1.40625 0.53125q-0.53125 0.515625 -0.53125 1.546875q0 0.90625 0.46875 1.515625q0.453125 0.609375 1.09375 0.609375l0 1.703125q-0.734375 0 -1.421875 -0.515625q-0.6875 -0.53125 -1.078125 -1.421875q-0.40625 -0.90625 -0.40625 -1.984375q0 -1.703125 0.859375 -2.671875q0.84375 -0.96875 2.328125 -1.0l4.53125 0q1.359375 0 2.171875 -0.34375l0.140625 0l0 1.765625zm-1.28125 2.796875q0 -0.796875 -0.40625 -1.5q-0.421875 -0.71875 -1.078125 -1.03125l-2.015625 0l0 1.3125q0 3.109375 1.8125 3.109375q0.796875 0 1.25 -0.53125q0.4375 -0.53125 0.4375 -1.359375zm-1.328125 -12.601105q-0.6875 0 -1.0625 0.515625q-0.375 0.515625 -0.640625 1.796875q-0.28125 1.28125 -0.65625 2.03125q-0.390625 0.75 -0.921875 1.109375q-0.53125 0.359375 -1.265625 0.359375q-1.203125 0 -2.03125 -1.015625q-0.84375 -1.03125 -0.84375 -2.625q0 -1.671875 0.859375 -2.71875q0.859375 -1.046875 2.21875 -1.046875l0 1.6875q-0.703125 0 -1.203125 0.59375q-0.5 0.59375 -0.5 1.484375q0 0.921875 0.40625 1.4375q0.390625 0.515625 1.046875 0.515625q0.609375 0 0.921875 -0.484375q0.3125 -0.484375 0.59375 -1.734375q0.28125 -1.265625 0.671875 -2.046875q0.390625 -0.78125 0.9375 -1.15625q0.546875 -0.390625 1.34375 -0.390625q1.328125 0 2.125 1.0625q0.796875 1.046875 0.796875 2.734375q0 1.1875 -0.421875 2.109375q-0.421875 0.90625 -1.171875 1.421875q-0.75 0.515625 -1.625 0.515625l0 -1.6875q0.84375 -0.046875 1.34375 -0.671875q0.5 -0.640625 0.5 -1.6875q0 -0.953125 -0.390625 -1.53125q-0.390625 -0.578125 -1.03125 -0.578125zm-9.640625 -6.166504l2.390625 0l0 -1.84375l1.3125 0l0 1.84375l6.109375 0q0.59375 0 0.890625 -0.234375q0.296875 -0.25 0.296875 -0.84375q0 -0.296875 -0.109375 -0.8125l1.359375 0q0.1875 0.671875 0.1875 1.296875q0 1.125 -0.6875 1.703125q-0.6875 0.578125 -1.9375 0.578125l-6.109375 0l0 1.796875l-1.3125 0l0 -1.796875l-2.390625 0l0 -1.6875zm3.90625 -8.578629q-0.0625 0.390625 -0.0625 0.84375q0 1.65625 1.40625 2.25l7.0 0l0 1.671875l-9.859375 0l0 -1.640625l1.140625 -0.015625q-1.3125 -0.828125 -1.3125 -2.359375q0 -0.484375 0.125 -0.75l1.5625 0zm7.375 -7.6253815q1.15625 0.984375 1.15625 2.890625q0 1.578125 -0.921875 2.40625q-0.921875 0.8125 -2.703125 0.828125l-6.421875 0l0 -1.6875l6.375 0q2.234375 0 2.234375 -1.828125q0 -1.921875 -1.4375 -2.5625l-7.171875 0l0 -1.6875l9.859375 0l0 1.609375l-0.96875 0.03125zm-0.21875 -8.159622q0 -0.890625 -0.546875 -1.5625q-0.546875 -0.6875 -1.375 -0.75l0 -1.59375q0.84375 0.046875 1.609375 0.578125q0.765625 0.53125 1.234375 1.4375q0.453125 0.890625 0.453125 1.890625q0 2.015625 -1.34375 3.203125q-1.34375 1.1875 -3.6875 1.1875l-0.28125 0q-1.4375 0 -2.546875 -0.515625q-1.125 -0.53125 -1.734375 -1.515625q-0.625 -1.0 -0.625 -2.34375q0 -1.65625 1.0 -2.75q0.984375 -1.109375 2.5625 -1.171875l0 1.59375q-0.953125 0.0625 -1.5625 0.71875q-0.625 0.65625 -0.625 1.609375q0 1.28125 0.921875 2.0q0.921875 0.703125 2.671875 0.703125l0.328125 0q1.703125 0 2.625 -0.703125q0.921875 -0.703125 0.921875 -2.015625zm-11.0625 -8.093506l2.390625 0l0 -1.84375l1.3125 0l0 1.84375l6.109375 0q0.59375 0 0.890625 -0.234375q0.296875 -0.25 0.296875 -0.84375q0 -0.296875 -0.109375 -0.8125l1.359375 0q0.1875 0.671875 0.1875 1.296875q0 1.125 -0.6875 1.703125q-0.6875 0.578125 -1.9375 0.578125l-6.109375 0l0 1.796875l-1.3125 0l0 -1.796875l-2.390625 0l0 -1.6875zm11.28125 -9.891129q1.15625 0.984375 1.15625 2.890625q0 1.578125 -0.921875 2.40625q-0.921875 0.8125 -2.703125 0.828125l-6.421875 0l0 -1.6875l6.375 0q2.234375 0 2.234375 -1.828125q0 -1.921875 -1.4375 -2.5625l-7.171875 0l0 -1.6875l9.859375 0l0 1.609375l-0.96875 0.03125zm-7.375 -8.972122q-0.0625 0.390625 -0.0625 0.84375q0 1.65625 1.40625 2.25l7.0 0l0 1.671875l-9.859375 0l0 -1.640625l1.140625 -0.015625q-1.3125 -0.828125 -1.3125 -2.359375q0 -0.484375 0.125 -0.75l1.5625 0zm8.53125 -5.4522095q0 2.0 -1.3125 3.265625q-1.328125 1.25 -3.53125 1.25l-0.3125 0q-1.46875 0 -2.609375 -0.5625q-1.15625 -0.5625 -1.796875 -1.5625q-0.65625 -1.015625 -0.65625 -2.1875q0 -1.921875 1.265625 -2.984375q1.265625 -1.0625 3.625 -1.0625l0.6875 0l0 6.671875q1.46875 -0.03125 2.375 -0.84375q0.890625 -0.828125 0.890625 -2.078125q0 -0.890625 -0.359375 -1.515625q-0.375 -0.625 -0.96875 -1.078125l0.796875 -1.03125q1.90625 1.234375 1.90625 3.71875zm-8.84375 0.203125q0 1.015625 0.75 1.71875q0.734375 0.6875 2.078125 0.84375l0 -4.9375l-0.125 0q-1.28125 0.078125 -1.984375 0.703125q-0.71875 0.609375 -0.71875 1.671875z" fill-rule="nonzero"/><path fill="#56b373" fill-opacity="0.6588" d="m169.94489 126.18629l310.0551 -85.63904l310.0551 85.63904z" fill-rule="evenodd"/><path stroke="#666666" stroke-width="1.0" stroke-linejoin="round" stroke-linecap="butt" d="m169.94489 126.18629l310.0551 -85.63904l310.0551 85.63904z" fill-rule="evenodd"/><path fill="#000000" d="m407.0853 85.74691l-3.125 0l0 5.359375l-1.75 0l0 -13.265625l4.390625 0q2.234375 0 3.4375 1.03125q1.21875 1.015625 1.21875 2.953125q0 1.25 -0.671875 2.171875q-0.671875 0.921875 -1.859375 1.375l3.109375 5.625l0 0.109375l-1.875 0l-2.875 -5.359375zm-3.125 -1.4375l2.6875 0q1.3125 0 2.078125 -0.671875q0.765625 -0.671875 0.765625 -1.8125q0 -1.21875 -0.734375 -1.875q-0.734375 -0.65625 -2.109375 -0.671875l-2.6875 0l0 5.03125zm13.565216 6.984375q-2.0 0 -3.265625 -1.3125q-1.25 -1.328125 -1.25 -3.53125l0 -0.3125q0 -1.46875 0.5625 -2.609375q0.5625 -1.15625 1.5625 -1.796875q1.015625 -0.65625 2.1875 -0.65625q1.921875 0 2.984375 1.265625q1.0625 1.265625 1.0625 3.625l0 0.6875l-6.671875 0q0.03125 1.46875 0.84375 2.375q0.828125 0.890625 2.078125 0.890625q0.890625 0 1.515625 -0.359375q0.625 -0.375 1.078125 -0.96875l1.03125 0.796875q-1.234375 1.90625 -3.71875 1.90625zm-0.203125 -8.84375q-1.015625 0 -1.71875 0.75q-0.6875 0.734375 -0.84375 2.078125l4.9375 0l0 -0.125q-0.078125 -1.28125 -0.703125 -1.984375q-0.609375 -0.71875 -1.671875 -0.71875zm12.086914 8.65625q-0.140625 -0.296875 -0.234375 -1.03125q-1.171875 1.21875 -2.8125 1.21875q-1.453125 0 -2.390625 -0.828125q-0.921875 -0.828125 -0.921875 -2.09375q0 -1.53125 1.15625 -2.375q1.171875 -0.859375 3.296875 -0.859375l1.640625 0l0 -0.78125q0 -0.890625 -0.53125 -1.40625q-0.515625 -0.53125 -1.546875 -0.53125q-0.90625 0 -1.515625 0.46875q-0.609375 0.453125 -0.609375 1.09375l-1.703125 0q0 -0.734375 0.515625 -1.421875q0.53125 -0.6875 1.421875 -1.078125q0.90625 -0.40625 1.984375 -0.40625q1.703125 0 2.671875 0.859375q0.96875 0.84375 1.0 2.328125l0 4.53125q0 1.359375 0.34375 2.171875l0 0.140625l-1.765625 0zm-2.796875 -1.28125q0.796875 0 1.5 -0.40625q0.71875 -0.421875 1.03125 -1.078125l0 -2.015625l-1.3125 0q-3.109375 0 -3.109375 1.8125q0 0.796875 0.53125 1.25q0.53125 0.4375 1.359375 0.4375zm8.694855 1.28125l-1.6875 0l0 -14.0l1.6875 0l0 14.0zm6.1993103 -4.953125l-4.4375 0l0 -1.375l4.4375 0l0 1.375zm3.9281006 -7.296875l0 2.390625l1.84375 0l0 1.3125l-1.84375 0l0 6.109375q0 0.59375 0.234375 0.890625q0.25 0.296875 0.84375 0.296875q0.296875 0 0.8125 -0.109375l0 1.359375q-0.671875 0.1875 -1.296875 0.1875q-1.125 0 -1.703125 -0.6875q-0.578125 -0.6875 -0.578125 -1.9375l0 -6.109375l-1.796875 0l0 -1.3125l1.796875 0l0 -2.390625l1.6875 0zm5.641144 12.25l-1.6875 0l0 -9.859375l1.6875 0l0 9.859375zm-1.828125 -12.46875q0 -0.40625 0.25 -0.6875q0.25 -0.296875 0.734375 -0.296875q0.5 0 0.75 0.296875q0.265625 0.28125 0.265625 0.6875q0 0.40625 -0.265625 0.6875q-0.25 0.265625 -0.75 0.265625q-0.484375 0 -0.734375 -0.265625q-0.25 -0.28125 -0.25 -0.6875zm6.10553 2.609375l0.046875 1.09375q1.078125 -1.265625 2.921875 -1.265625q2.0625 0 2.8125 1.578125q0.5 -0.71875 1.28125 -1.140625q0.796875 -0.4375 1.859375 -0.4375q3.25 0 3.296875 3.421875l0 6.609375l-1.671875 0l0 -6.5q0 -1.0625 -0.484375 -1.578125q-0.484375 -0.53125 -1.625 -0.53125q-0.9375 0 -1.5625 0.5625q-0.609375 0.5625 -0.71875 1.5l0 6.546875l-1.6875 0l0 -6.453125q0 -2.15625 -2.109375 -2.15625q-1.65625 0 -2.265625 1.40625l0 7.203125l-1.6875 0l0 -9.859375l1.59375 0zm18.851562 10.046875q-2.0 0 -3.265625 -1.3125q-1.25 -1.328125 -1.25 -3.53125l0 -0.3125q0 -1.46875 0.5625 -2.609375q0.5625 -1.15625 1.5625 -1.796875q1.015625 -0.65625 2.1875 -0.65625q1.921875 0 2.984375 1.265625q1.0625 1.265625 1.0625 3.625l0 0.6875l-6.671875 0q0.03125 1.46875 0.84375 2.375q0.828125 0.890625 2.078125 0.890625q0.890625 0 1.515625 -0.359375q0.625 -0.375 1.078125 -0.96875l1.03125 0.796875q-1.234375 1.90625 -3.71875 1.90625zm-0.203125 -8.84375q-1.015625 0 -1.71875 0.75q-0.6875 0.734375 -0.84375 2.078125l4.9375 0l0 -0.125q-0.078125 -1.28125 -0.703125 -1.984375q-0.609375 -0.71875 -1.671875 -0.71875zm18.205444 5.1875l-5.546875 0l-1.25 3.46875l-1.8125 0l5.0625 -13.265625l1.53125 0l5.078125 13.265625l-1.796875 0l-1.265625 -3.46875zm-5.03125 -1.4375l4.515625 0l-2.265625 -6.203125l-2.25 6.203125zm11.217163 -4.953125l0.046875 1.234375q1.125 -1.40625 2.953125 -1.40625q3.125 0 3.15625 3.515625l0 6.515625l-1.6875 0l0 -6.515625q-0.015625 -1.078125 -0.5 -1.578125q-0.46875 -0.515625 -1.484375 -0.515625q-0.8125 0 -1.4375 0.4375q-0.609375 0.4375 -0.96875 1.15625l0 7.015625l-1.671875 0l0 -9.859375l1.59375 0zm14.778107 9.859375q-0.140625 -0.296875 -0.234375 -1.03125q-1.171875 1.21875 -2.8125 1.21875q-1.453125 0 -2.390625 -0.828125q-0.921875 -0.828125 -0.921875 -2.09375q0 -1.53125 1.15625 -2.375q1.171875 -0.859375 3.296875 -0.859375l1.640625 0l0 -0.78125q0 -0.890625 -0.53125 -1.40625q-0.515625 -0.53125 -1.546875 -0.53125q-0.90625 0 -1.515625 0.46875q-0.609375 0.453125 -0.609375 1.09375l-1.703125 0q0 -0.734375 0.515625 -1.421875q0.53125 -0.6875 1.421875 -1.078125q0.90625 -0.40625 1.984375 -0.40625q1.703125 0 2.671875 0.859375q0.96875 0.84375 1.0 2.328125l0 4.53125q0 1.359375 0.34375 2.171875l0 0.140625l-1.765625 0zm-2.796875 -1.28125q0.796875 0 1.5 -0.40625q0.71875 -0.421875 1.03125 -1.078125l0 -2.015625l-1.3125 0q-3.109375 0 -3.109375 1.8125q0 0.796875 0.53125 1.25q0.53125 0.4375 1.359375 0.4375zm8.694824 1.28125l-1.6875 0l0 -14.0l1.6875 0l0 14.0zm5.91803 -2.46875l2.296875 -7.390625l1.796875 0l-3.953125 11.375q-0.921875 2.46875 -2.921875 2.46875l-0.328125 -0.03125l-0.625 -0.125l0 -1.359375l0.453125 0.03125q0.859375 0 1.328125 -0.34375q0.484375 -0.34375 0.796875 -1.265625l0.375 -1.0l-3.515625 -9.75l1.84375 0l2.453125 7.390625zm7.8896484 -9.78125l0 2.390625l1.84375 0l0 1.3125l-1.84375 0l0 6.109375q0 0.59375 0.234375 0.890625q0.25 0.296875 0.84375 0.296875q0.296875 0 0.8125 -0.109375l0 1.359375q-0.671875 0.1875 -1.296875 0.1875q-1.125 0 -1.703125 -0.6875q-0.578125 -0.6875 -0.578125 -1.9375l0 -6.109375l-1.796875 0l0 -1.3125l1.796875 0l0 -2.390625l1.6875 0zm5.6411133 12.25l-1.6875 0l0 -9.859375l1.6875 0l0 9.859375zm-1.828125 -12.46875q0 -0.40625 0.25 -0.6875q0.25 -0.296875 0.734375 -0.296875q0.5 0 0.75 0.296875q0.265625 0.28125 0.265625 0.6875q0 0.40625 -0.265625 0.6875q-0.25 0.265625 -0.75 0.265625q-0.484375 0 -0.734375 -0.265625q-0.25 -0.28125 -0.25 -0.6875zm8.48053 11.28125q0.890625 0 1.5625 -0.546875q0.6875 -0.546875 0.75 -1.375l1.59375 0q-0.046875 0.84375 -0.578125 1.609375q-0.53125 0.765625 -1.4375 1.234375q-0.890625 0.453125 -1.890625 0.453125q-2.015625 0 -3.203125 -1.34375q-1.1875 -1.34375 -1.1875 -3.6875l0 -0.28125q0 -1.4375 0.515625 -2.546875q0.53125 -1.125 1.515625 -1.734375q1.0 -0.625 2.34375 -0.625q1.65625 0 2.75 1.0q1.109375 0.984375 1.171875 2.5625l-1.59375 0q-0.0625 -0.953125 -0.71875 -1.5625q-0.65625 -0.625 -1.609375 -0.625q-1.28125 0 -2.0 0.921875q-0.703125 0.921875 -0.703125 2.671875l0 0.328125q0 1.703125 0.703125 2.625q0.703125 0.921875 2.015625 0.921875zm11.546631 -1.421875q0 -0.6875 -0.515625 -1.0625q-0.515625 -0.375 -1.796875 -0.640625q-1.28125 -0.28125 -2.03125 -0.65625q-0.75 -0.390625 -1.109375 -0.921875q-0.359375 -0.53125 -0.359375 -1.265625q0 -1.203125 1.015625 -2.03125q1.03125 -0.84375 2.625 -0.84375q1.671875 0 2.71875 0.859375q1.046875 0.859375 1.046875 2.21875l-1.6875 0q0 -0.703125 -0.59375 -1.203125q-0.59375 -0.5 -1.484375 -0.5q-0.921875 0 -1.4375 0.40625q-0.515625 0.390625 -0.515625 1.046875q0 0.609375 0.484375 0.921875q0.484375 0.3125 1.734375 0.59375q1.265625 0.28125 2.046875 0.671875q0.78125 0.390625 1.15625 0.9375q0.390625 0.546875 0.390625 1.34375q0 1.328125 -1.0625 2.125q-1.046875 0.796875 -2.734375 0.796875q-1.1875 0 -2.109375 -0.421875q-0.90625 -0.421875 -1.421875 -1.171875q-0.515625 -0.75 -0.515625 -1.625l1.6875 0q0.046875 0.84375 0.671875 1.34375q0.640625 0.5 1.6875 0.5q0.953125 0 1.53125 -0.390625q0.578125 -0.390625 0.578125 -1.03125z" fill-rule="nonzero"/><path fill="#000000" d="m456.6573 109.637535l-5.546875 0l-1.25 3.46875l-1.8125 0l5.0625 -13.265625l1.53125 0l5.078125 13.265625l-1.796875 0l-1.265625 -3.46875zm-5.03125 -1.4375l4.515625 0l-2.265625 -6.203125l-2.25 6.203125zm11.764038 4.90625l-1.75 0l0 -13.265625l1.75 0l0 13.265625zm7.192505 -3.5625q0 -0.953125 0.53125 -1.75q0.53125 -0.8125 2.03125 -1.875q-0.875 -1.078125 -1.1875 -1.734375q-0.296875 -0.65625 -0.296875 -1.296875q0 -1.515625 0.890625 -2.375q0.90625 -0.859375 2.421875 -0.859375q1.375 0 2.265625 0.8125q0.890625 0.796875 0.890625 2.0q0 0.796875 -0.40625 1.484375q-0.40625 0.671875 -1.40625 1.421875l-0.984375 0.71875l2.953125 3.53125q0.625 -1.1875 0.625 -2.640625l1.515625 0q0 2.328125 -1.125 3.859375l1.90625 2.265625l-2.03125 0l-0.875 -1.046875q-0.671875 0.59375 -1.578125 0.921875q-0.90625 0.3125 -1.859375 0.3125q-1.9375 0 -3.109375 -1.03125q-1.171875 -1.03125 -1.171875 -2.71875zm4.28125 2.375q1.34375 0 2.453125 -1.03125l-3.234375 -3.859375l-0.296875 0.21875q-1.515625 1.109375 -1.515625 2.296875q0 1.078125 0.6875 1.734375q0.703125 0.640625 1.90625 0.640625zm-1.515625 -9.09375q0 0.875 1.078125 2.1875l1.078125 -0.75q0.609375 -0.4375 0.84375 -0.828125q0.234375 -0.40625 0.234375 -0.96875q0 -0.609375 -0.46875 -1.015625q-0.453125 -0.40625 -1.140625 -0.40625q-0.75 0 -1.1875 0.515625q-0.4375 0.5 -0.4375 1.265625zm16.32428 -2.984375l4.34375 10.828125l4.328125 -10.828125l2.265625 0l0 13.265625l-1.75 0l0 -5.171875l0.171875 -5.5625l-4.359375 10.734375l-1.34375 0l-4.34375 -10.71875l0.171875 5.546875l0 5.171875l-1.734375 0l0 -13.265625l2.25 0zm15.787781 11.828125l6.28125 0l0 1.4375l-8.03125 0l0 -13.265625l1.75 0l0 11.828125z" fill-rule="nonzero"/></g></svg>