<svg width="100%" height="100%" id="svg" viewBox="0 0 1440 590" xmlns="http://www.w3.org/2000/svg" class="transition duration-300 ease-in-out delay-150"><defs><linearGradient id="gradient" x1="0%" y1="50%" x2="100%" y2="50%"><stop offset="5%" stop-color="#00d084"></stop><stop offset="95%" stop-color="#8ed1fc"></stop></linearGradient></defs><path d="M 0,600 L 0,150 C 43.623472641348286,120.79505304712559 87.24694528269657,91.59010609425118 131,112 C 174.75305471730343,132.40989390574882 218.63569151056197,202.4346286701209 260,209 C 301.36430848943803,215.5653713298791 340.2102886750555,158.67137922526524 375,144 C 409.7897113249445,129.32862077473476 440.52315378921594,156.87985442881816 477,164 C 513.4768462107841,171.12014557118184 555.6970961680806,157.80920305946213 594,141 C 632.3029038319194,124.19079694053787 666.6884615384615,103.88333333333334 704,97 C 741.3115384615385,90.11666666666666 781.5490576780734,96.65746360720453 828,130 C 874.4509423219266,163.34253639279547 927.1153077492456,223.4868122378485 966,208 C 1004.8846922507544,192.5131877621515 1029.9897113249447,101.39528744140142 1072,88 C 1114.0102886750553,74.60471255859858 1172.9258469509762,138.93203799654577 1221,174 C 1269.0741530490238,209.06796200345423 1306.3069008711495,214.87656057241549 1341,206 C 1375.6930991288505,197.12343942758451 1407.8465495644252,173.56171971379226 1440,150 L 1440,600 L 0,600 Z" stroke="none" stroke-width="0" fill="url(#gradient)" fill-opacity="0.53" class="transition-all duration-300 ease-in-out delay-150 path-0"></path><defs><linearGradient id="gradient" x1="0%" y1="50%" x2="100%" y2="50%"><stop offset="5%" stop-color="#00d084"></stop><stop offset="95%" stop-color="#8ed1fc"></stop></linearGradient></defs><path d="M 0,600 L 0,350 C 46.70630871718956,390.73584144698134 93.41261743437911,431.4716828939627 134,405 C 174.58738256562089,378.5283171060373 209.05583897967313,284.8491098711306 241,289 C 272.9441610203269,293.1508901288694 302.3640266469282,395.13187762151495 342,423 C 381.6359733530718,450.86812237848505 431.48805443261404,404.6233796428097 477,378 C 522.511945567386,351.3766203571903 563.6837556226158,344.37460380724633 605,338 C 646.3162443773842,331.62539619275367 687.7769230769229,325.87820512820514 725,312 C 762.2230769230771,298.12179487179486 795.2085520696921,276.1125756799332 834,289 C 872.7914479303079,301.8874243200668 917.3888686443088,349.6714921520621 960,353 C 1002.6111313556912,356.3285078479379 1043.2359733530718,315.20145571181837 1087,312 C 1130.7640266469282,308.79854428818163 1177.667237943404,343.5226850006643 1221,346 C 1264.332762056596,348.4773149993357 1304.095074873313,318.7078042855245 1340,314 C 1375.904925126687,309.2921957144755 1407.9524625633435,329.64609785723775 1440,350 L 1440,600 L 0,600 Z" stroke="none" stroke-width="0" fill="url(#gradient)" fill-opacity="1" class="transition-all duration-300 ease-in-out delay-150 path-1"></path></svg>