<svg width="100%" height="100%" id="svg" viewBox="0 0 1440 390" xmlns="http://www.w3.org/2000/svg" class="transition duration-300 ease-in-out delay-150"><path d="M 0,400 L 0,360 C 68.46889952153111,363.6459330143541 136.93779904306223,367.29186602870817 246,349 C 355.0622009569378,330.70813397129183 504.71770334928215,290.47846889952154 613,271 C 721.2822966507179,251.52153110047848 788.1913875598087,252.79425837320574 878,229 C 967.8086124401913,205.20574162679426 1080.5167464114834,156.3444976076555 1178,124 C 1275.4832535885166,91.65550239234449 1357.7416267942583,75.82775119617224 1440,60 L 1440,400 L 0,400 Z" stroke="none" stroke-width="0" fill="#00d084" fill-opacity="0.265" class="transition-all duration-300 ease-in-out delay-150 path-0"></path><path d="M 0,400 L 0,440 C 109.19617224880383,448.7942583732057 218.39234449760767,457.58851674641147 318,440 C 417.60765550239233,422.41148325358853 507.62679425837325,378.4401913875598 603,348 C 698.3732057416267,317.5598086124402 799.1004784688994,300.65071770334924 893,279 C 986.8995215311006,257.34928229665076 1073.9712918660287,230.95693779904306 1164,207 C 1254.0287081339713,183.04306220095694 1347.0143540669856,161.52153110047846 1440,140 L 1440,400 L 0,400 Z" stroke="none" stroke-width="0" fill="#00d084" fill-opacity="0.4" class="transition-all duration-300 ease-in-out delay-150 path-1"></path><path d="M 0,400 L 0,520 C 77.50239234449762,542.7846889952152 155.00478468899524,565.5693779904306 247,549 C 338.99521531100476,532.4306220095694 445.48325358851673,476.5071770334929 551,447 C 656.5167464114833,417.4928229665071 761.062200956938,414.4019138755981 864,390 C 966.937799043062,365.5980861244019 1068.2679425837318,319.88516746411483 1164,288 C 1259.7320574162682,256.11483253588517 1349.866028708134,238.05741626794259 1440,220 L 1440,400 L 0,400 Z" stroke="none" stroke-width="0" fill="#00d084" fill-opacity="0.53" class="transition-all duration-300 ease-in-out delay-150 path-2"></path><path d="M 0,400 L 0,600 C 82.83253588516749,594.2775119617224 165.66507177033498,588.555023923445 268,571 C 370.334928229665,553.444976076555 492.17224880382776,524.0574162679426 606,497 C 719.8277511961722,469.9425837320574 825.6459330143542,445.2153110047847 915,426 C 1004.3540669856458,406.7846889952153 1077.244019138756,393.0813397129187 1162,373 C 1246.755980861244,352.9186602870813 1343.377990430622,326.4593301435407 1440,300 L 1440,400 L 0,400 Z" stroke="none" stroke-width="0" fill="#00d084" fill-opacity="1" class="transition-all duration-300 ease-in-out delay-150 path-3"></path></svg>