<svg xmlns="http://www.w3.org/2000/svg" xmlns:xlink="http://www.w3.org/1999/xlink" version="1.1" x="0px" y="0px" viewBox="0 0 512 640" style="enable-background:new 0 0 512 512;" xml:space="preserve"><g><g><polygon points="86,431 86,146 56,168.5 56,431 71,431   "/><path d="M206,386c0-2.762,2.239-5,5-5h75V156V33.772L176,83.883V166v265h30V386z M231,96h20v40h-20V96z M231,146h20v40h-20V146z     M231,196h20v40h-20V196z M231,246h20v40h-20V246z M201,96h20v40h-20V96z M201,146h20v40h-20V146z M201,196h20v40h-20V196z     M201,246h20v40h-20V246z M201,296h20v40h-20V296z"/><path d="M166,169.465l-70-26.25V431h70V169.465z M141,386h-20v-40h20V386z M141,336h-20v-40h20V336z M141,286h-20v-40h20V286z     M141,236h-20v-40h20V236z"/><path d="M376,386v45h30V141.902l-110,18.333V381h75C373.762,381,376,383.238,376,386z M371,176h20v30h-20V176z M371,216h20v30h-20    V216z M371,256h20v30h-20V256z M331,366h-20v-30h20V366z M331,326h-20v-30h20V326z M331,286h-20v-30h20V286z M331,246h-20v-30h20    V246z M331,206h-20v-30h20V206z M361,326h-20v-30h20V326z M361,286h-20v-30h20V286z M361,246h-20v-30h20V246z M361,206h-20v-30h20    V206z"/><polygon points="456,168.831 416,144.831 416,431 456,431   "/><polygon points="336,143.431 336,68.403 296,36.403 296,150.098 316,146.764   "/><path d="M471,480h-55v-39h-5h-35v39h-10v-44v-45h-75h-75v45v44h-10v-39h-35H91H76v39H41c-2.762,0-5,2.238-5,5s2.238,5,5,5h430    c2.762,0,5-2.238,5-5S473.762,480,471,480z M341,456H241v-20h100V456z M341,426H241v-20h100V426z"/></g></g><text x="0" y="527" fill="#000000" font-size="5px" font-weight="bold" font-family="'Helvetica Neue', Helvetica, Arial-Unicode, Arial, Sans-serif">Created by Flatart</text><text x="0" y="532" fill="#000000" font-size="5px" font-weight="bold" font-family="'Helvetica Neue', Helvetica, Arial-Unicode, Arial, Sans-serif">from the Noun Project</text></svg>