<svg xmlns="http://www.w3.org/2000/svg" xmlns:xlink="http://www.w3.org/1999/xlink" version="1.1" x="0px" y="0px" viewBox="0 0 277 346.25" style="enable-background:new 0 0 277 277;" xml:space="preserve"><g><g><path d="M231.99,98.47h-70.97c-0.27,0-0.5,0.23-0.5,0.5v2.44h-7.62c-0.69,0-1.29,0.26-1.74,0.72c-0.45,0.45-0.73,1.06-0.73,1.74    c0,1.36,1.11,2.47,2.47,2.47h7.62v11.84h-5.79c-0.69,0-1.3,0.27-1.74,0.72c-0.45,0.45-0.73,1.07-0.73,1.74    c0,1.36,1.11,2.46,2.47,2.46h5.79v3.4h-2.37c-0.68,0-1.29,0.27-1.74,0.73c-0.44,0.44-0.72,1.06-0.72,1.73    c0,1.36,1.1,2.47,2.46,2.47h2.37v3.13h-26.06c-1.36,0-2.47,1.1-2.47,2.46c0,1.36,1.11,2.46,2.47,2.46h26.06v3.4h-34.81    c-1.36,0-2.46,1.11-2.46,2.46c0,1.36,1.1,2.47,2.46,2.47h35.38v-0.08h23.55v14.44c0,5.43-4.4,9.83-9.83,9.83h-61.44v-15.75h8.12    c1.36,0,2.46-1.1,2.46-2.46c0-0.67-0.28-1.29-0.73-1.74c-0.44-0.45-1.05-0.72-1.73-0.72h-8.12v-3.52h2.57    c1.35,0,2.46-1.11,2.46-2.47c0-0.67-0.28-1.29-0.73-1.73c-0.44-0.46-1.05-0.73-1.73-0.73h-2.57c0-0.27-0.22-0.5-0.5-0.5H73.1    c-0.28,0-0.5,0.23-0.5,0.5v18.59H54c-0.28,0-0.5,0.22-0.5,0.5v24.29H49c-0.28,0-0.5,0.23-0.5,0.5c0,0.28,0.22,0.5,0.5,0.5h4.5    v19.7c0,0.28,0.22,0.5,0.5,0.5h44.99c0.28,0,0.5-0.22,0.5-0.5v-23.8h13.38c0.28,0,0.5-0.23,0.5-0.5v-2.17    c0.09,0.14,0.24,0.23,0.42,0.23h79.45c0.27,0,0.5-0.22,0.5-0.5v-32.49h4.94v37.42c0,2.38-1.21,4.49-3.06,5.72v-0.41    c0-0.36-0.28-0.64-0.64-0.64h-91.99v12.06h8.47L94.91,266.5h6.04l17-64.62h23.86v64.62h6.27v-64.62h23.86l17,64.62h6.04    l-16.55-64.62h16.55c0.36,0,0.64-0.28,0.64-0.64v-5.21h7.83c0.28,0,0.5-0.23,0.5-0.5v-47.8h28.04c0.28,0,0.5-0.22,0.5-0.5V98.97    C232.49,98.7,232.27,98.47,231.99,98.47z M98.49,187.21l-8.73-11.79l-9.34,9.26l18.07,18.21v1.58l-0.91,0.9l-1.05-1.07l-0.36,0.35    l-2.09-2.1l0.36-0.35l-2.09-2.11l-0.36,0.36l-2.09-2.11l0.36-0.35l-2.09-2.1l-0.36,0.35l-2.09-2.1l0.36-0.36l-2.09-2.1l-0.35,0.35    l-2.09-2.1l0.35-0.35l-2.09-2.11l-0.35,0.36l-1.06-1.07l-5.09,1.18l-0.49-0.49l-2.1,2.08l0.35,0.36l-2.11,2.09l-0.35-0.36    l-2.1,2.09l0.35,0.35l-2.11,2.09l-0.35-0.35l-2.1,2.08l0.35,0.36l-2.11,2.09l-0.35-0.36l-2.1,2.09l0.35,0.35l-2.11,2.09    l-0.35-0.35l-1.06,1.05l-0.42-0.42v-2.52l16.74-16.6l-4.08-5.54c0,0-6.96,6.5-12.66,11.76v-29.41h43.99V187.21z M112.37,180.51    l-1.06,1.05l-11.82-11.91v-3.63L112.37,179V180.51z M112.37,165.12l-7.66-10.35l-6.75,6.7h-2.93l0.42-0.41l-0.71-0.71l-1.06,1.05    l0.07,0.07h-1.81l0.07-0.06l-1.06-1.07l-0.71,0.71l0.42,0.42H86.6l-1.87-2.55c0,0-1.09,1.03-2.73,2.55h-8.4v-18.09h38.77V165.12z     M179.32,100.9c1.18,0,2.14,0.96,2.14,2.14c0,1.18-0.96,2.15-2.14,2.15c-1.19,0-2.15-0.97-2.15-2.15    C177.17,101.86,178.13,100.9,179.32,100.9z M172.77,100.9c1.19,0,2.15,0.96,2.15,2.14c0,1.18-0.96,2.15-2.15,2.15    c-1.18,0-2.15-0.97-2.15-2.15C170.62,101.86,171.59,100.9,172.77,100.9z M166.23,100.9c1.19,0,2.15,0.96,2.15,2.14    c0,1.18-0.96,2.15-2.15,2.15s-2.15-0.97-2.15-2.15C164.08,101.86,165.04,100.9,166.23,100.9z M226.13,126.31    c-0.84,2.36-2.01,6.14-3.65,8.04c-4.95,5.73-14.22,7.11-21.79,7.38c-13.07,0.47-26.32-2.72-39.17-0.3v-34.31h64.6    c0.1,1.12,1,3.11,1.15,3.89c0.33,1.74,0.51,3.51,0.52,5.28C227.82,119.69,227.27,123.1,226.13,126.31z"/><path d="M125.35,98.01c1.36,0,2.46-1.11,2.46-2.46s-1.11-2.46-2.46-2.46h-18.15c-0.68,0-1.29,0.27-1.74,0.73    c-0.44,0.44-0.73,1.06-0.73,1.74c0,1.36,1.11,2.46,2.46,2.46H125.35z"/><path d="M107.19,106.33h34.56c1.36,0,2.46-1.11,2.46-2.46s-1.11-2.46-2.46-2.46h-34.56c-0.68,0-1.29,0.27-1.74,0.73    c-0.44,0.44-0.73,1.06-0.73,1.74C104.73,105.23,105.84,106.33,107.19,106.33z"/><path d="M107.19,114.66h28.79c1.36,0,2.46-1.11,2.46-2.46c0-1.36-1.11-2.46-2.46-2.46h-28.79c-0.68,0-1.29,0.27-1.74,0.73    c-0.44,0.44-0.73,1.06-0.73,1.74C104.73,113.55,105.84,114.66,107.19,114.66z"/><path d="M156.78,112.19c0-1.36-1.11-2.46-2.46-2.46h-8.05c-0.68,0-1.29,0.27-1.74,0.73c-0.44,0.44-0.73,1.06-0.73,1.74    c0,1.36,1.11,2.46,2.46,2.46h8.05C155.68,114.66,156.78,113.55,156.78,112.19z"/><path d="M107.19,123.1h37.24c1.36,0,2.46-1.11,2.46-2.46s-1.11-2.46-2.46-2.46h-37.24c-0.68,0-1.29,0.27-1.74,0.73    c-0.44,0.44-0.73,1.06-0.73,1.74C104.73,122,105.84,123.1,107.19,123.1z"/><path d="M150.32,128.96c0-1.36-1.11-2.46-2.46-2.46h-40.67c-0.68,0-1.29,0.27-1.74,0.73c-0.44,0.44-0.73,1.06-0.73,1.74    c0,1.36,1.11,2.46,2.46,2.46h40.67C149.22,131.43,150.32,130.32,150.32,128.96z"/><path d="M107.89,134.56c-1.36,0-2.46,1.11-2.46,2.46s1.11,2.46,2.46,2.46h8.05c1.36,0,2.46-1.11,2.46-2.46    c0-0.67-0.28-1.29-0.73-1.74c-0.44-0.46-1.05-0.73-1.74-0.73H107.89z"/><path d="M169.01,156.25c1.36,0,2.46-1.11,2.46-2.46c0-0.67-0.28-1.29-0.73-1.74c-0.44-0.46-1.05-0.73-1.74-0.73h-37.24    c-1.36,0-2.46,1.11-2.46,2.46c0,1.36,1.11,2.46,2.46,2.46H169.01z"/><path d="M125.89,162.11c0,1.36,1.11,2.46,2.46,2.46h40.67c1.36,0,2.46-1.11,2.46-2.46c0-0.67-0.28-1.29-0.73-1.74    c-0.44-0.46-1.05-0.73-1.74-0.73h-40.67C126.99,159.65,125.89,160.76,125.89,162.11z"/><path d="M185.09,135.12c0.19,0.19,0.45,0.29,0.7,0.29c0.26,0,0.52-0.1,0.71-0.3c0.39-0.39,0.38-1.03-0.01-1.41l-6.24-6.17    l6.17-6.24c0.39-0.39,0.38-1.03-0.01-1.41c-0.39-0.39-1.03-0.38-1.41,0.01l-6.87,6.95c-0.39,0.39-0.38,1.03,0.01,1.41    L185.09,135.12z"/><path d="M201.37,139c0.11,0.04,0.21,0.05,0.32,0.05c0.42,0,0.81-0.26,0.95-0.68l5.27-15.7l4.84,4.79l-6.17,6.24    c-0.39,0.39-0.38,1.03,0.01,1.41c0.19,0.19,0.45,0.29,0.7,0.29c0.26,0,0.52-0.1,0.71-0.3l6.87-6.95c0.19-0.19,0.29-0.44,0.29-0.71    c0-0.27-0.11-0.52-0.3-0.71l-6.25-6.18l1.11-3.31c0.18-0.52-0.11-1.09-0.63-1.27c-0.52-0.17-1.09,0.11-1.27,0.63l-7.09,21.12    C200.57,138.26,200.85,138.83,201.37,139z"/><path d="M191.36,135.41h6.42c0.55,0,1-0.45,1-1s-0.45-1-1-1h-6.42c-0.55,0-1,0.45-1,1S190.81,135.41,191.36,135.41z"/><path d="M86.71,151.67c1.61,0,2.91-1.29,2.91-2.9c0-1.61-1.3-2.91-2.91-2.91c-1.61,0-2.91,1.3-2.91,2.91    C83.8,150.38,85.11,151.67,86.71,151.67z"/><rect x="78.17" y="147.14" transform="matrix(0.7097 -0.7045 0.7045 0.7097 -81.9067 98.5776)" width="1" height="3.08"/><rect x="82.5" y="151.51" transform="matrix(0.7097 -0.7045 0.7045 0.7097 -83.7259 102.9007)" width="1" height="3.08"/><rect x="86.84" y="155.88" transform="matrix(0.7098 -0.7044 0.7044 0.7098 -85.5392 107.2041)" width="1" height="3.08"/><rect x="74.39" y="144.12" transform="matrix(0.7097 -0.7045 0.7045 0.7097 -80.3218 94.8118)" width="1" height="1.5"/><rect x="96.83" y="156.95" transform="matrix(0.71 -0.7042 0.7042 0.71 -82.3487 114.9257)" width="3.08" height="1"/><rect x="101.2" y="152.62" transform="matrix(0.71 -0.7042 0.7042 0.71 -78.0301 116.7461)" width="3.08" height="1"/><rect x="105.57" y="148.28" transform="matrix(0.71 -0.7042 0.7042 0.71 -73.7116 118.5663)" width="3.08" height="1"/><rect x="110.17" y="144.51" transform="matrix(0.71 -0.7042 0.7042 0.71 -69.9463 120.1533)" width="1.5" height="1"/><path d="M69.4,171.91c1.82,0,3.29-1.46,3.29-3.28c0-1.82-1.47-3.29-3.29-3.29c-1.82,0-3.29,1.47-3.29,3.29    C66.11,170.45,67.58,171.91,69.4,171.91z"/><rect x="67.47" y="174.77" transform="matrix(0.7097 -0.7045 0.7045 0.7097 -104.4362 99.0412)" width="1" height="2.96"/><rect x="59.11" y="166.35" transform="matrix(0.7097 -0.7045 0.7045 0.7097 -100.9317 90.7134)" width="1" height="2.96"/><rect x="71.64" y="178.98" transform="matrix(0.7098 -0.7044 0.7044 0.7098 -106.1794 103.1844)" width="1" height="2.96"/><rect x="63.29" y="170.56" transform="matrix(0.7097 -0.7045 0.7045 0.7097 -102.6838 94.8772)" width="1" height="2.96"/><rect x="55.45" y="163.4" transform="matrix(0.7095 -0.7047 0.7047 0.7095 -99.4169 87.1066)" width="1" height="1.5"/><rect x="91.68" y="167.46" transform="matrix(0.71 -0.7042 0.7042 0.71 -91.2607 114.3049)" width="2.96" height="1"/><rect x="83.26" y="175.81" transform="matrix(0.71 -0.7042 0.7042 0.71 -99.5823 110.7972)" width="2.96" height="1"/><rect x="79.05" y="179.99" transform="matrix(0.71 -0.7042 0.7042 0.71 -103.7428 109.0437)" width="2.96" height="1"/><rect x="87.47" y="171.64" transform="matrix(0.71 -0.7042 0.7042 0.71 -95.4214 112.551)" width="2.96" height="1"/><polygon points="75.62,186.06 76.32,185.38 77.01,186.07 77.72,185.37 77.03,184.67 77.73,183.97 77.02,183.26 76.32,183.96     75.63,183.27 74.92,183.97 75.61,184.67 74.92,185.35   "/><rect x="96.1" y="163.8" transform="matrix(0.71 -0.7042 0.7042 0.71 -87.6139 115.8422)" width="1.5" height="1"/><path d="M203.95,63.14v-3.12c0-0.28-0.22-0.5-0.5-0.5h-3.11l-1.19-1.18l11.28-11.28c1.3-1.3,3-2.09,4.82-2.36    c0.96-0.13,1.91-0.41,2.83-0.85c8.81-4.11,4.69-16.17,3.15-14.14c-2.33,3.05-4.47,6.95-4.47,6.95c-0.63,1.75-7.86-0.89-7.23-2.62    c0,0,0.87-4.37,1.05-8.2c0.1-2.19-8,2.41-7.58,9.38c0.14,2.4-0.7,4.77-2.41,6.47l-12.78,12.79l-20.44-20.45l-0.02,0.02l-1.17-4.38    l-6.56-3.36l-3.21,3.21l3.36,6.56l4.38,1.17l-0.02,0.02l20.44,20.44l-1.81,1.81H86.44c-0.28,0-0.5,0.22-0.5,0.5v16.6    c-0.01,0-0.01,0-0.01-0.01c-1.06-0.73-1.61-1.83-2.1-2.81c-0.38-0.77-0.75-1.51-1.3-1.94c-0.34-0.27-0.79-0.46-1.27-0.67    c-0.26-0.11-0.51-0.21-0.76-0.33c-2.52-1.23-4.29-3.71-4.63-6.48c-0.06-0.52-0.09-1.2,0.27-1.79c0.23-0.42,0.61-0.76,1.14-1.03    c0.65-0.34,1.34-0.57,2.01-0.79c1.13-0.38,2.11-0.7,2.56-1.45c0.07-0.12,0.13-0.26,0.2-0.39c0.17-0.38,0.4-0.85,0.84-1.26    c0.59-0.51,1.29-0.63,1.85-0.73l0.38-0.07c0.7-0.16,1.39-0.58,2.13-1.02c1.11-0.66,2.26-1.34,3.65-1.34c0.2,0,0.4,0.01,0.6,0.04    c0.72,0.11,1.34,0.41,1.89,0.67c0.27,0.13,0.53,0.26,0.81,0.36c0.21,0.08,0.45,0.12,0.66,0.12c0.09,0,0.41-0.01,0.5-0.15    c0.06-0.08,0.11-0.27,0.16-0.45c0.06-0.23,0.12-0.46,0.22-0.68c0.14-0.34,0.39-0.69,0.72-0.94c-0.03-0.58,0.15-1.16,0.53-1.63    c0.44-0.55,1.14-0.88,1.88-0.88c0.26,0,0.51,0.04,0.75,0.11c-0.2-0.19-0.44-0.35-0.67-0.44c-0.45-0.17-0.93-0.26-1.4-0.35    c-0.79-0.15-1.68-0.32-2.5-0.81c-0.78-0.46-1.35-1.13-1.85-1.71c-0.2-0.24-0.41-0.48-0.61-0.69c-0.87-0.86-2-1.45-3.2-2.07    c-0.48-0.26-0.96-0.51-1.44-0.78c-0.57-0.34-1.16-0.74-1.52-1.36c-0.53-0.85-0.47-1.93,0.11-2.62c-0.25,0-0.77,0.02-0.79,0.02    c-0.38,0-0.74-0.2-0.93-0.53c-0.66-1.11-0.23-2.63,0.94-3.37c0.89-0.6,1.92-0.64,2.68-0.67c0.51-0.02,1.02-0.04,1.53-0.04    c1.13,0,2.12,0.08,3.02,0.22c5.64,0.91,10.45,5.45,11.69,11.05c0.14,0.67,0.26,1.47,0.08,2.27c-0.11,0.48-0.31,0.9-0.49,1.27    c-0.17,0.34-0.32,0.66-0.35,0.92c-0.01,0.15,0.01,0.3,0.02,0.45c0.03,0.39,0.07,0.87-0.08,1.35c-0.29,1.04-1.2,1.6-1.74,1.94    c-0.81,0.51-1.63,1.03-2.44,1.55h14.78c-1.66-14.03-13.57-24.9-28.05-24.9c-15.59,0-28.23,12.64-28.23,28.25    c0,15.43,12.39,27.96,27.76,28.22v5.48c-18.43-0.27-33.26-15.21-33.26-33.7c0-18.65,15.1-33.76,33.76-33.76    c17.56,0,31.86,13.33,33.53,30.41h16.44c-0.89-5.09-0.97-5.47-2.05-11.68l-8.13-1.11c-2.35-4.03-3.33-5.72-5.63-9.77l3.07-7.58    c-5.3-4.46-5.09-4.27-10.39-8.74l-6.95,4.35c-4.37-1.56-6.23-2.23-10.58-3.84l-2.51-7.81c-6.95,0-6.67,0-13.6,0l-2.51,7.81    c-4.4,1.61-6.21,2.28-10.58,3.84L59.6,17.8c-5.3,4.47-5.09,4.28-10.41,8.74l3.09,7.58c-0.58,1-1.06,1.85-1.51,2.63h-0.34    c-0.28,0-0.5,0.23-0.5,0.5c0,0.2,0.12,0.37,0.29,0.45c-1.11,1.93-2.06,3.57-3.57,6.19L38.52,45c-1.21,6.84-1.17,6.58-2.38,13.37    l7.26,3.86c0.83,4.58,1.16,6.51,1.97,11.09l-5.51,6.06c3.47,6,3.35,5.77,6.79,11.77l8.02-1.72c3.58,3,5.07,4.25,8.63,7.23    l-0.31,8.2c6.51,2.37,6.26,2.3,12.77,4.68l5.04-6.49h5.14v36.43c0,0.28,0.22,0.5,0.5,0.5c0.27,0,0.5-0.22,0.5-0.5V60.52h111.74    v34.71l5.27,0.02V84.58l6,5.99c2.96,2.97,7.76,2.97,10.72,0.01v-0.01c2.96-2.96,2.96-7.75,0-10.72L203.95,63.14z M71.7,41.51    c-1.69,3-3.09,6.23-3.21,9.68c-0.05,1.16,0.08,2.34-0.05,3.5c-0.09,1.16-0.43,2.34-1.23,3.16c-0.53,0.55-1.2,0.92-1.64,1.52    c-0.31,0.39-0.48,0.92-0.91,1.25c-0.61,0.44-1.45,0.29-2.15,0s-1.35-0.72-2.1-0.77c-0.17,0-0.34,0-0.48-0.09    c-0.24-0.1-0.32-0.37-0.36-0.63c-0.25-1.28,0.14-2.61,0.09-3.91c0-0.1,0-0.19-0.02-0.29c1.35-7.24,5.57-13.46,11.43-17.47    c0.56,0,1.04,0.07,1.38,0.29C73.92,38.67,72.26,40.52,71.7,41.51z M203.95,64.66c1.71,1.54,3.39,3.11,5.02,4.74    c2.67,2.67,5.22,5.45,7.65,8.32c0.77,0.92,0.7,2.27-0.14,3.12c-0.86,0.85-2.21,0.92-3.13,0.14c-2.87-2.42-5.65-4.97-8.32-7.64    c-0.36-0.37-0.72-0.74-1.08-1.11V64.66z M211.35,85.97c-0.86,0.85-2.22,0.91-3.13,0.14c-1.45-1.23-2.87-2.5-4.27-3.79v-7.69    c2.64,2.64,5.15,5.38,7.54,8.21C212.27,83.76,212.2,85.11,211.35,85.97z M216.65,90.92c-2.22,0.48-4.17,0.15-4.37-0.75    c-0.19-0.89,1.45-2,3.67-2.48c2.22-0.48,4.18-0.15,4.37,0.74C220.52,89.33,218.87,90.44,216.65,90.92z"/><path d="M193.74,94.93V83.92h0V70.24c0-0.28-0.22-0.5-0.5-0.5H96.65c-0.28,0-0.5,0.22-0.5,0.5v69.25c0,0.28,0.22,0.5,0.5,0.5    s0.5-0.22,0.5-0.5V85.07h86.9v9.87H193.74z M104.73,81.57c-2.16,0-3.92-1.76-3.92-3.92s1.76-3.91,3.92-3.91    c2.17,0,3.92,1.75,3.92,3.91S106.9,81.57,104.73,81.57z M116.67,81.57c-2.16,0-3.92-1.76-3.92-3.92s1.76-3.91,3.92-3.91    c2.17,0,3.92,1.75,3.92,3.91S118.85,81.57,116.67,81.57z M128.62,81.57c-2.16,0-3.92-1.76-3.92-3.92s1.76-3.91,3.92-3.91    c2.17,0,3.92,1.75,3.92,3.91S130.79,81.57,128.62,81.57z"/><path d="M43.79,186.26h-5.21c-0.28,0-0.5,0.22-0.5,0.5s0.22,0.5,0.5,0.5h5.21c0.28,0,0.5-0.22,0.5-0.5S44.06,186.26,43.79,186.26z    "/><path d="M33.37,186.26h-4.5v-4.5c0-0.28-0.22-0.5-0.5-0.5s-0.5,0.22-0.5,0.5v5c0,0.28,0.22,0.5,0.5,0.5h5c0.28,0,0.5-0.22,0.5-0.5    S33.65,186.26,33.37,186.26z"/><path d="M28.37,150.07c0.28,0,0.5-0.22,0.5-0.5v-10.73c0-0.28-0.22-0.5-0.5-0.5s-0.5,0.22-0.5,0.5v10.73    C27.87,149.84,28.1,150.07,28.37,150.07z"/><path d="M28.37,128.6c0.28,0,0.5-0.22,0.5-0.5v-10.73c0-0.28-0.22-0.5-0.5-0.5s-0.5,0.22-0.5,0.5v10.73    C27.87,128.38,28.1,128.6,28.37,128.6z"/><path d="M28.37,85.68c0.28,0,0.5-0.22,0.5-0.5V74.45c0-0.28-0.22-0.5-0.5-0.5s-0.5,0.22-0.5,0.5v10.73    C27.87,85.45,28.1,85.68,28.37,85.68z"/><path d="M28.37,107.14c0.28,0,0.5-0.22,0.5-0.5V95.91c0-0.28-0.22-0.5-0.5-0.5s-0.5,0.22-0.5,0.5v10.73    C27.87,106.92,28.1,107.14,28.37,107.14z"/><path d="M28.37,64.21c0.28,0,0.5-0.22,0.5-0.5V52.98c0-0.28-0.22-0.5-0.5-0.5s-0.5,0.22-0.5,0.5v10.73    C27.87,63.99,28.1,64.21,28.37,64.21z"/><path d="M28.37,171.53c0.28,0,0.5-0.22,0.5-0.5V160.3c0-0.28-0.22-0.5-0.5-0.5s-0.5,0.22-0.5,0.5v10.73    C27.87,171.31,28.1,171.53,28.37,171.53z"/><path d="M33.37,36.75h-5c-0.28,0-0.5,0.22-0.5,0.5v5c0,0.28,0.22,0.5,0.5,0.5s0.5-0.22,0.5-0.5v-4.5h4.5c0.28,0,0.5-0.22,0.5-0.5    S33.65,36.75,33.37,36.75z"/><path d="M39.06,37.75h5.68c0.28,0,0.5-0.22,0.5-0.5s-0.22-0.5-0.5-0.5h-5.68c-0.28,0-0.5,0.22-0.5,0.5S38.78,37.75,39.06,37.75z"/><path d="M248.86,157.57c-0.14-2.08-0.28-4.24-0.27-6.29c0-0.28-0.22-0.5-0.5-0.5c0,0,0,0,0,0c-0.27,0-0.5,0.22-0.5,0.5    c-0.01,2.09,0.13,4.26,0.27,6.36c0.39,6.04,0.8,12.28-2.36,17.25c-1.33,2.09-3.28,3.94-5.98,5.66c-1.36,0.87-2.61,1.5-3.79,1.9    c0.22-1.83,0.17-3.86-0.71-5.7c-1.16-2.42-4.28-4.26-6.9-3.04c-1.08,0.5-1.89,1.48-2.29,2.74c-0.45,1.44-0.29,3.04,0.44,4.27    c1.24,2.12,3.9,3.4,6.74,3.27c0.49-0.02,0.98-0.08,1.49-0.18c-0.03,0.17-0.06,0.33-0.1,0.49c-0.68,3.22-1.67,5.5-3.12,7.19    c-1.83,2.12-4.49,3.14-6.78,2.61c-1.27-0.3-2.44-1.2-3.11-2.41c-0.57-1.02-0.71-2.12-0.38-3.09c0.09-0.26-0.05-0.55-0.31-0.63    c-0.26-0.09-0.54,0.05-0.63,0.31c-0.42,1.24-0.26,2.63,0.45,3.9c0.81,1.46,2.22,2.54,3.76,2.9c0.47,0.11,0.96,0.16,1.45,0.16    c2.25,0,4.61-1.13,6.31-3.09c1.57-1.81,2.63-4.24,3.35-7.63c0.06-0.31,0.13-0.63,0.19-0.96c1.4-0.42,2.87-1.13,4.49-2.16    c2.82-1.8,4.88-3.75,6.29-5.96C249.68,170.18,249.26,163.77,248.86,157.57z M234.68,182.75c-0.58,0.14-1.15,0.22-1.71,0.25    c-2.49,0.13-4.77-0.97-5.83-2.77c-0.58-1-0.71-2.3-0.35-3.47c0.31-0.99,0.93-1.75,1.75-2.13c0.44-0.21,0.91-0.3,1.37-0.3    c1.72,0,3.45,1.29,4.2,2.86C234.96,178.94,234.93,180.95,234.68,182.75z"/><path d="M230.74,91.59c0.07,0.03,0.15,0.05,0.22,0.05c0.19,0,0.36-0.1,0.45-0.28l3.52-7.22c0.12-0.25,0.02-0.55-0.23-0.67    c-0.25-0.12-0.55-0.02-0.67,0.23l-3.52,7.22C230.39,91.17,230.49,91.47,230.74,91.59z"/><path d="M239.61,101.14c0.1,0.14,0.25,0.21,0.41,0.21c0.1,0,0.2-0.03,0.29-0.09l6.57-4.62c0.23-0.16,0.28-0.47,0.12-0.7    c-0.16-0.23-0.47-0.28-0.7-0.12l-6.57,4.62C239.51,100.61,239.46,100.92,239.61,101.14z"/><path d="M238.39,94.33c0.15,0,0.3-0.07,0.4-0.19l4.92-6.35c0.17-0.22,0.13-0.53-0.09-0.7c-0.22-0.17-0.53-0.13-0.7,0.09    l-4.92,6.35c-0.17,0.22-0.13,0.53,0.09,0.7C238.17,94.29,238.28,94.33,238.39,94.33z"/><path d="M55.87,210.52c-0.88,0.04-1.74,0.13-2.57,0.13c-0.82,0.02-1.67-0.02-2.26-0.38c-0.61-0.34-0.81-1.21-0.84-2.11    c-0.18,0.41-0.3,0.86-0.28,1.35c0.02,0.48,0.23,1.02,0.64,1.37c0.83,0.72,1.87,0.76,2.76,0.77c0.92-0.03,1.8-0.17,2.65-0.36    l1.27-0.3c0.42-0.09,0.84-0.23,1.27-0.14c-0.37-0.3-0.88-0.3-1.31-0.34C56.75,210.48,56.31,210.49,55.87,210.52z"/><path d="M206.73,197.96c-0.59,0.36-1.44,0.4-2.26,0.38c-0.83,0-1.69-0.1-2.57-0.13c-0.44-0.02-0.88-0.03-1.33-0.01    c-0.44,0.05-0.94,0.04-1.31,0.34c0.43-0.08,0.85,0.06,1.27,0.14l1.27,0.3c0.86,0.19,1.74,0.34,2.65,0.36    c0.89-0.01,1.93-0.05,2.76-0.77c0.41-0.35,0.62-0.89,0.64-1.37c0.01-0.49-0.1-0.94-0.28-1.35    C207.54,196.75,207.34,197.62,206.73,197.96z"/><path d="M224.09,26c0.47,0.51,0.67,1.33,0.82,2.14c0.16,0.82,0.23,1.68,0.37,2.55c0.06,0.43,0.14,0.87,0.25,1.31    c0.13,0.42,0.23,0.92,0.59,1.22c-0.17-0.41-0.11-0.85-0.11-1.28l0.04-1.31c0.02-0.88-0.01-1.77-0.16-2.67    c-0.18-0.88-0.43-1.88-1.29-2.56c-0.43-0.33-0.99-0.44-1.47-0.36c-0.48,0.08-0.9,0.28-1.27,0.54    C222.74,25.45,223.63,25.47,224.09,26z"/><path d="M210.47,59.45c-0.16,1.07,0.58,2.07,1.66,2.23c1.07,0.16,2.07-0.58,2.23-1.66c0.16-1.08-0.58-2.07-1.66-2.23    C211.63,57.63,210.63,58.37,210.47,59.45z"/><path d="M217.38,54.37c-0.21,1.46,0.79,2.81,2.26,3.03c1.46,0.21,2.81-0.79,3.03-2.25c0.21-1.46-0.79-2.82-2.25-3.03    C218.95,51.9,217.6,52.9,217.38,54.37z"/><path d="M229.33,54.44c1.88,0.28,3.62-1.02,3.9-2.9c0.28-1.89-1.02-3.63-2.9-3.91c-1.89-0.28-3.63,1.02-3.91,2.91    C226.14,52.41,227.44,54.16,229.33,54.44z"/></g></g><text x="0" y="292" fill="#000000" font-size="5px" font-weight="bold" font-family="'Helvetica Neue', Helvetica, Arial-Unicode, Arial, Sans-serif">Created by Azam Ishaq</text><text x="0" y="297" fill="#000000" font-size="5px" font-weight="bold" font-family="'Helvetica Neue', Helvetica, Arial-Unicode, Arial, Sans-serif">from the Noun Project</text></svg>