<?xml version="1.0" encoding="iso-8859-1"?>
<!-- Uploaded to: SVG Repo, www.svgrepo.com, Generator: SVG Repo Mixer Tools -->
<svg fill="#000000" height="800px" width="800px" version="1.1" id="Layer_1" xmlns="http://www.w3.org/2000/svg" xmlns:xlink="http://www.w3.org/1999/xlink" 
	 viewBox="0 0 512 512" xml:space="preserve">
<g>
	<g>
		<g>
			<path d="M404.757,85.333H384V49.877C384,22.33,361.67,0,334.123,0H177.877C150.33,0,128,22.33,128,49.877v35.456h-20.757
				c-35.67,0-64.576,28.916-64.576,64.576v297.515c0,35.66,28.906,64.576,64.576,64.576h297.515
				c35.654,0,64.576-28.922,64.576-64.576V149.909C469.333,114.255,440.411,85.333,404.757,85.333z M170.667,49.877
				c0-3.983,3.227-7.211,7.211-7.211h156.245c3.983,0,7.211,3.227,7.211,7.211v35.456H170.667V49.877z M107.243,128h42.091h213.333
				h42.091c12.09,0,21.909,9.819,21.909,21.909v33.636l-34.195,33.968C380.794,202.018,362.239,192,341.333,192
				c-23.68,0-44.335,12.86-55.404,31.97c-18.973-6.551-40.899-6.537-59.855,0.007C215.006,204.863,194.35,192,170.667,192
				c-20.866,0-39.388,9.982-51.07,25.427l-34.263-34.263v-33.254C85.333,137.81,95.14,128,107.243,128z M362.667,256
				c0,11.791-9.542,21.333-21.333,21.333S320,267.791,320,256s9.542-21.333,21.333-21.333S362.667,244.209,362.667,256z M192,256
				c0,11.791-9.542,21.333-21.333,21.333s-21.333-9.542-21.333-21.333s9.542-21.333,21.333-21.333S192,244.209,192,256z
				 M404.757,469.333H107.243c-12.102,0-21.909-9.81-21.909-21.909V243.503l22.045,22.045C111.987,296.371,138.557,320,170.667,320
				c31.57,0,57.771-22.846,63.023-52.908c12.307-7.159,32.289-7.183,44.62-0.003C283.561,297.153,309.762,320,341.333,320
				c32.095,0,58.657-23.607,63.283-54.41l22.05-21.904v203.738C426.667,459.514,416.847,469.333,404.757,469.333z"/>
			<path d="M341.333,341.333H170.667c-11.782,0-21.333,9.551-21.333,21.333S158.885,384,170.667,384h42.667v42.667
				c0,11.782,9.551,21.333,21.333,21.333c11.782,0,21.333-9.551,21.333-21.333v-21.333c0,11.782,9.551,21.333,21.333,21.333
				c11.782,0,21.333-9.551,21.333-21.333V384h42.667c11.782,0,21.333-9.551,21.333-21.333S353.115,341.333,341.333,341.333z"/>
		</g>
	</g>
</g>
</svg>