<?xml version="1.0" ?><!-- Uploaded to: SVG Repo, www.svgrepo.com, Generator: SVG Repo Mixer Tools -->
<svg fill="#000000" width="800px" height="800px" viewBox="0 0 100 100" data-name="Layer 1" id="Layer_1" xmlns="http://www.w3.org/2000/svg"><title/><path d="M80,21.08H20a2,2,0,0,0-2,2V67.81a2,2,0,0,0,2,2H34.14A8.22,8.22,0,0,0,33,74v2.88a2,2,0,0,0,2,2H65a2,2,0,0,0,2-2V74a8.22,8.22,0,0,0-1.18-4.23H80a2,2,0,0,0,2-2V23.08A2,2,0,0,0,80,21.08ZM63,74v.88H37V74a4.23,4.23,0,0,1,4.22-4.23H58.82A4.24,4.24,0,0,1,63,74Zm15-8.23H22V25.08H78Zm-36.43-6H58.65A10.07,10.07,0,0,0,68.71,49.3a10.17,10.17,0,0,0-9.88-9.58,10.58,10.58,0,0,0-21,1.57v.1l-.51.17a8.73,8.73,0,0,0-6.06,8.29V50A10.25,10.25,0,0,0,41.57,59.86Zm-3-14.48a12.31,12.31,0,0,0,.53,1.17,2,2,0,0,0,3.54-1.86,6.52,6.52,0,0,1-.75-3.28A6.58,6.58,0,0,1,55,41.63a2,2,0,0,0,.32,1.08l.05.09a2,2,0,0,0,1.69.91h1.35a6.27,6.27,0,0,1,6.3,5.78A6.08,6.08,0,0,1,63,54a6,6,0,0,1-4.39,1.88H41.57a6.22,6.22,0,0,1-6.29-5.93v-.11A4.79,4.79,0,0,1,38.53,45.38Z"/></svg>