<svg xmlns="http://www.w3.org/2000/svg" data-name="Layer 1" viewBox="0 0 64 80" x="0px" y="0px"><title>Untitled-1</title><path d="M60.84,52.23l-3.75-2.17a.48.48,0,0,0-.49,0,.5.5,0,0,0-.25.43v.68H50.46v-1a.49.49,0,0,0-.49-.49H49V42.47h4a10.19,10.19,0,0,0,5.11-19,8.62,8.62,0,0,0,.17-1.71A8.75,8.75,0,0,0,49.55,13a8.2,8.2,0,0,0-2.22.29A12.78,12.78,0,0,0,35.54,5.6a12.23,12.23,0,0,0-2.71.3l-3-3a.45.45,0,0,0-.35-.15.45.45,0,0,0-.34.15L27.58,4.45a13.6,13.6,0,0,0-4.26-1.77V.49A.49.49,0,0,0,22.83,0H17.49A.49.49,0,0,0,17,.49V2.67a14.08,14.08,0,0,0-4.27,1.77L11.17,2.89a.45.45,0,0,0-.34-.15.47.47,0,0,0-.35.15L6.71,6.67a.49.49,0,0,0,0,.69L8.25,8.91a13.79,13.79,0,0,0-1.77,4.27H4.29a.49.49,0,0,0-.49.49V19a.49.49,0,0,0,.49.49H6.48a13.66,13.66,0,0,0,1.15,3.17A10.18,10.18,0,0,0,11,42.47h6v7.31a3.33,3.33,0,0,0-1.39,1.39h-6v-.68a.5.5,0,0,0-.25-.43.48.48,0,0,0-.49,0L5.14,52.23a.49.49,0,0,0-.25.42.5.5,0,0,0,.25.43l3.75,2.17a.54.54,0,0,0,.25.06.5.5,0,0,0,.24-.06.52.52,0,0,0,.25-.43v-.68h6A3.24,3.24,0,1,0,20,49.78V42.47h6.69V59.26H26a.48.48,0,0,0-.43.25.53.53,0,0,0,0,.49l2.17,3.75a.49.49,0,0,0,.85,0L30.75,60a.48.48,0,0,0,0-.49.48.48,0,0,0-.43-.25h-.68V42.47h6.7V59.26h-.68a.47.47,0,0,0-.42.25.48.48,0,0,0,0,.49l2.16,3.75a.5.5,0,0,0,.43.25.49.49,0,0,0,.42-.25L40.42,60a.48.48,0,0,0,0-.49.48.48,0,0,0-.43-.25h-.68V42.47H46v7.21H45a.49.49,0,0,0-.5.49v5a.5.5,0,0,0,.5.5h5a.49.49,0,0,0,.49-.5v-1h5.89v.68a.52.52,0,0,0,.25.43.54.54,0,0,0,.25.06.5.5,0,0,0,.24-.06l3.75-2.17a.48.48,0,0,0,.25-.43A.47.47,0,0,0,60.84,52.23ZM8.64,54,6.37,52.65l2.27-1.31ZM20.15,9.5a6.71,6.71,0,0,1,4.67,1.87,11.71,11.71,0,0,0-.9,1.58,9.89,9.89,0,0,0-3.25-.54,10.15,10.15,0,0,0-7.3,3.09A6.84,6.84,0,0,1,20.15,9.5Zm.6,43.15a2.25,2.25,0,0,1-4.35.81,2.16,2.16,0,0,1-.15-.81,2.35,2.35,0,0,1,.11-.71.77.77,0,0,1,.07-.16,2.26,2.26,0,0,1,1.27-1.23,2.21,2.21,0,0,1,1.6,0l.07,0A2.25,2.25,0,0,1,20.75,52.65Zm7.41,9.87-1.32-2.28h2.63Zm9.67,0-1.31-2.28h2.62Zm1-21H11a9.2,9.2,0,1,1,0-18.4.49.49,0,0,0,.49-.49A9.21,9.21,0,0,1,24,14a.48.48,0,0,0,.63-.26,11.89,11.89,0,0,1,22,.32.48.48,0,0,0,.61.29,7.74,7.74,0,0,1,10.11,7.39,7.24,7.24,0,0,1-.23,1.84.49.49,0,0,0,.24.56A9.19,9.19,0,0,1,53,41.48ZM49.47,51.66v3h-4v-4h4ZM57.34,54V51.34l2.27,1.31Z"/><path d="M35.93,9.65A8.7,8.7,0,0,0,31.34,11a.5.5,0,0,0-.17.69.51.51,0,0,0,.69.16,7.77,7.77,0,0,1,9.25.83.54.54,0,0,0,.34.12.5.5,0,0,0,.37-.16.51.51,0,0,0,0-.71A8.76,8.76,0,0,0,35.93,9.65Z"/><path d="M29.59,12.36a7.91,7.91,0,0,0-.75.88.5.5,0,0,0,.11.7.46.46,0,0,0,.29.1.51.51,0,0,0,.41-.2,7.08,7.08,0,0,1,.66-.79.51.51,0,0,0,0-.71A.5.5,0,0,0,29.59,12.36Z"/><text x="0" y="79" fill="#000000" font-size="5px" font-weight="bold" font-family="'Helvetica Neue', Helvetica, Arial-Unicode, Arial, Sans-serif">Created by Rank Sol</text><text x="0" y="84" fill="#000000" font-size="5px" font-weight="bold" font-family="'Helvetica Neue', Helvetica, Arial-Unicode, Arial, Sans-serif">from the Noun Project</text></svg>